<svg width="48" height="48" viewBox="0 0 48 48" fill="none" xmlns="http://www.w3.org/2000/svg">
<path fill-rule="evenodd" clip-rule="evenodd" d="M19.0002 20.2H17.0002C15.4538 20.2 14.2002 21.4536 14.2002 23V41C14.2002 42.5463 15.4538 43.8 17.0002 43.8H19.0002C20.5466 43.8 21.8002 42.5463 21.8002 41V23C21.8002 21.4536 20.5466 20.2 19.0002 20.2ZM15.8002 23C15.8002 22.3372 16.3375 21.8 17.0002 21.8H19.0002C19.6629 21.8 20.2002 22.3372 20.2002 23V41C20.2002 41.6627 19.6629 42.2 19.0002 42.2H17.0002C16.3375 42.2 15.8002 41.6627 15.8002 41V23ZM9.0002 26.2H7.0002C5.4538 26.2 4.2002 27.4536 4.2002 29V41C4.2002 42.5463 5.4538 43.8 7.0002 43.8H9.0002C10.5466 43.8 11.8002 42.5463 11.8002 41V29C11.8002 27.4536 10.5466 26.2 9.0002 26.2ZM5.8002 29C5.8002 28.3372 6.33745 27.8 7.0002 27.8H9.0002C9.66294 27.8 10.2002 28.3372 10.2002 29V41C10.2002 41.6627 9.66294 42.2 9.0002 42.2H7.0002C6.33745 42.2 5.8002 41.6627 5.8002 41V29ZM27.0002 23.2H29.0002C30.5466 23.2 31.8002 24.4536 31.8002 26V41C31.8002 42.5463 30.5466 43.8 29.0002 43.8H27.0002C25.4538 43.8 24.2002 42.5463 24.2002 41V26C24.2002 24.4536 25.4538 23.2 27.0002 23.2ZM27.0002 24.8C26.3375 24.8 25.8002 25.3372 25.8002 26V41C25.8002 41.6627 26.3375 42.2 27.0002 42.2H29.0002C29.6629 42.2 30.2002 41.6627 30.2002 41V26C30.2002 25.3372 29.6629 24.8 29.0002 24.8H27.0002Z" fill="white"/>
<path opacity="0.6" fill-rule="evenodd" clip-rule="evenodd" d="M21.8002 13L21.8002 13.0081L24.7346 14.0557C25.3977 12.9443 26.612 12.2 28.0002 12.2C30.0989 12.2 31.8002 13.9013 31.8002 16C31.8002 18.0986 30.0989 19.8 28.0002 19.8C25.9015 19.8 24.2002 18.0986 24.2002 16C24.2002 15.8554 24.2083 15.7127 24.224 15.5723L21.4554 14.5839C20.8548 15.8917 19.5336 16.8 18.0002 16.8C16.8737 16.8 15.8617 16.3098 15.1659 15.5311L11.6234 17.8511C11.7383 18.2135 11.8002 18.5995 11.8002 19C11.8002 21.0986 10.0989 22.8 8.0002 22.8C5.90151 22.8 4.2002 21.0986 4.2002 19C4.2002 16.9013 5.90151 15.2 8.0002 15.2C9.12253 15.2 10.1312 15.6865 10.8268 16.4602L14.3734 14.1375C14.2609 13.7784 14.2002 13.3962 14.2002 13C14.2002 10.9013 15.9015 9.19995 18.0002 9.19995C20.0989 9.19995 21.8002 10.9013 21.8002 13ZM15.8002 13C15.8002 14.215 16.7852 15.2 18.0002 15.2C19.2152 15.2 20.2002 14.215 20.2002 13C20.2002 11.7849 19.2152 10.8 18.0002 10.8C16.7852 10.8 15.8002 11.7849 15.8002 13ZM5.8002 19C5.8002 20.215 6.78517 21.2 8.0002 21.2C9.21522 21.2 10.2002 20.215 10.2002 19C10.2002 17.7849 9.21522 16.8 8.0002 16.8C6.78517 16.8 5.8002 17.7849 5.8002 19ZM28.0002 18.2C26.7852 18.2 25.8002 17.215 25.8002 16C25.8002 14.7849 26.7852 13.8 28.0002 13.8C29.2152 13.8 30.2002 14.7849 30.2002 16C30.2002 17.215 29.2152 18.2 28.0002 18.2Z" fill="#33C8C3"/>
<path fill-rule="evenodd" clip-rule="evenodd" d="M41.721 4.63176L37.6238 9.19152L35.3938 7.27461C35.0587 6.98661 34.5536 7.02475 34.2656 7.3598C33.9776 7.69486 34.0157 8.19995 34.3508 8.48796L37.1743 10.915C37.5042 11.1986 38.0001 11.1666 38.2909 10.843L42.9111 5.70116C43.2064 5.37252 43.1794 4.86671 42.8508 4.5714C42.5221 4.2761 42.0163 4.30312 41.721 4.63176ZM36.9997 14.2001H38.9997C40.5461 14.2001 41.7997 15.4537 41.7997 17.0001V41.0001C41.7997 42.5464 40.5461 43.8001 38.9997 43.8001H36.9997C35.4533 43.8001 34.1997 42.5464 34.1997 41.0001V17.0001C34.1997 15.4537 35.4533 14.2001 36.9997 14.2001ZM36.9997 15.8001C36.337 15.8001 35.7997 16.3373 35.7997 17.0001V41.0001C35.7997 41.6628 36.337 42.2001 36.9997 42.2001H38.9997C39.6625 42.2001 40.1997 41.6628 40.1997 41.0001V17.0001C40.1997 16.3373 39.6625 15.8001 38.9997 15.8001H36.9997Z" fill="#33C8C3"/>
</svg>
