<svg width="205" height="59" viewBox="0 0 205 59" fill="none" xmlns="http://www.w3.org/2000/svg">
<g id="logo/ d3-js-seeklogo.com copy">
<g id="logo/ d3-js-seeklogo.com">
<g id="g4600">
<path id="path34" d="M60.1792 42.2181C60.2061 41.9575 60.2253 41.6945 60.2403 41.4302C60.2586 41.1172 41.3677 23.2344 41.3677 23.2344H40.916C40.916 23.2344 60.0637 43.3853 60.1792 42.2179V42.2181Z" fill="url(#paint0_linear_0_35660)"/>
<path id="path36" d="M19.8747 36.0144C19.8496 36.0693 19.8248 36.1243 19.799 36.1789C19.7723 36.2364 19.7447 36.2937 19.7173 36.3505C19.1152 37.6033 28.1477 46.4133 28.8741 45.343C28.9072 45.2958 28.9404 45.2458 28.9734 45.1986C29.0102 45.1425 29.0465 45.0887 29.0828 45.0326C29.6638 44.1526 20.1326 35.4422 19.8747 36.0144Z" fill="url(#paint1_linear_0_35660)"/>
<path id="path38" d="M32.6381 48.4034C32.6126 48.4595 32.4308 48.7662 32.2647 48.9282C32.2366 48.9843 41.0824 57.737 41.0824 57.737H41.8789C41.8793 57.737 33.5752 48.7734 32.6381 48.4034V48.4034Z" fill="url(#paint2_linear_0_35660)"/>
<path id="path40" fill-rule="evenodd" clip-rule="evenodd" d="M0.320312 1.17078H5.34923C21.0073 1.17078 33.7468 13.8793 33.7468 29.4999C33.7468 35.3027 31.9858 40.7016 28.9734 45.1986L19.799 36.179C20.7461 34.1472 21.2791 31.884 21.2791 29.4999C21.2791 20.7367 14.1324 13.6082 5.34923 13.6082H0.320312V1.17078ZM42.983 57.737C52.2523 57.737 59.8392 50.421 60.2529 41.2712C60.2391 41.5255 60.221 41.7773 60.1983 42.0292L41.0801 23.2341H37.9886C38.3814 25.2662 38.5925 27.3578 38.5925 29.4999C38.5925 31.6098 38.3852 33.6722 38.0059 35.6723H42.983C45.6429 35.6723 47.8074 37.8319 47.8074 40.4859C47.8074 43.1411 45.6429 45.2996 42.983 45.2996H34.5725C33.9424 46.457 33.2344 47.567 32.4731 48.6384L41.7297 57.737H42.983Z" fill="url(#paint3_linear_0_35660)"/>
<path id="path42" d="M42.9831 1.17078H22.6191C27.593 4.20061 31.7116 8.49679 34.5178 13.6082H42.9831C45.6429 13.6082 47.8075 15.7667 47.8075 18.4219C47.8075 21.0763 45.6429 23.2348 42.9831 23.2348H41.0809L60.1991 42.0297C60.2441 41.5199 60.2722 41.0069 60.2722 40.4859C60.2722 36.293 58.7642 32.4468 56.2604 29.4532C58.7642 26.461 60.2722 22.614 60.2722 18.4219C60.2722 8.91002 52.5171 1.17078 42.9831 1.17078Z" fill="url(#paint4_linear_0_35660)"/>
<path id="path44" fill-rule="evenodd" clip-rule="evenodd" d="M19.7997 36.179L28.9734 45.1986C23.8771 52.8069 15.1906 57.8293 5.34923 57.8293H0.320312V45.393H5.34923C11.7423 45.393 17.2652 41.6134 19.7997 36.179ZM22.7645 57.737H41.7297L32.4731 48.6384C29.8824 52.2794 26.5821 55.3847 22.7645 57.737Z" fill="url(#paint5_linear_0_35660)"/>
</g>
<g id="g952">
<g id="g917">
<path id="path4553" fill-rule="evenodd" clip-rule="evenodd" d="M90.277 21.5189C90.8745 20.4138 91.1732 19.1815 91.1732 17.8218C91.1732 16.3684 90.8879 15.1126 90.3173 14.0544C89.7467 12.9962 88.9512 12.1489 87.9308 11.5126C87.3334 11.1443 86.6017 10.8563 85.7357 10.6486C84.8764 10.4343 83.7151 10.3271 82.2517 10.3271H78.5059V25.2864H82.292C83.6681 25.2864 84.7758 25.1926 85.6149 25.0051C86.4607 24.8176 87.226 24.5128 87.9107 24.0909C88.8975 23.4814 89.6863 22.6241 90.277 21.5189ZM88.4746 14.828C88.8841 15.6317 89.0888 16.6196 89.0888 17.7917V17.7917C89.0888 18.9571 88.9009 19.9283 88.5249 20.7052C88.1557 21.4821 87.5985 22.1084 86.8534 22.5839C86.256 22.9657 85.5981 23.2269 84.8798 23.3675C84.1682 23.5082 83.3325 23.5785 82.3725 23.5785H80.4996V12.0351H82.3725C83.2989 12.0351 84.0944 12.102 84.759 12.236C85.4236 12.3633 86.0512 12.5943 86.642 12.9292C87.4542 13.3913 88.0651 14.0243 88.4746 14.828Z" fill="#4F4F4F"/>
<path id="path4555" fill-rule="evenodd" clip-rule="evenodd" d="M101.121 25.2863H103.004L103.004 17.671C103.004 16.9477 102.893 16.3415 102.672 15.8526C102.45 15.3637 102.128 14.9652 101.705 14.6571C101.276 14.3423 100.765 14.1213 100.175 13.994C99.5906 13.8601 98.9025 13.7931 98.1104 13.7931C97.4324 13.7931 96.7443 13.8534 96.0461 13.9739C95.348 14.0945 94.8143 14.205 94.4451 14.3055V16.2244H94.5458C95.197 15.9765 95.828 15.789 96.4389 15.6618C97.0497 15.5278 97.6036 15.4608 98.1003 15.4608C98.5098 15.4608 98.9025 15.4876 99.2784 15.5412C99.6544 15.5948 99.9766 15.6986 100.245 15.8526C100.527 16.0134 100.742 16.2344 100.89 16.5157C101.044 16.797 101.121 17.152 101.121 17.5806V17.872C100.02 17.9256 98.9898 18.0059 98.0298 18.1131C97.0699 18.2203 96.2475 18.4245 95.5628 18.7259C94.8848 19.0273 94.3612 19.4426 93.992 19.9717C93.6295 20.4941 93.4482 21.1806 93.4482 22.0312C93.4482 23.0694 93.8007 23.9233 94.5055 24.5931C95.2104 25.2629 96.0696 25.5977 97.0833 25.5977C97.6338 25.5977 98.1137 25.5442 98.5232 25.437C98.9327 25.3365 99.2952 25.2093 99.6107 25.0552C99.8793 24.9347 100.154 24.7739 100.436 24.573C100.725 24.3654 100.953 24.2046 101.121 24.0908V25.2863ZM101.121 19.3991V22.5235C100.651 22.8852 100.141 23.1966 99.5906 23.4578C99.0401 23.7123 98.4326 23.8396 97.768 23.8396C96.9692 23.8396 96.3751 23.6789 95.9857 23.3574C95.5964 23.0292 95.4017 22.5436 95.4017 21.9006C95.4017 21.3313 95.5695 20.8859 95.9052 20.5644C96.2408 20.2363 96.6805 19.9951 97.2243 19.8411C97.6808 19.7138 98.2983 19.6167 99.0771 19.5498C99.8625 19.4828 100.544 19.4325 101.121 19.3991Z" fill="#4F4F4F"/>
<path id="path4557" d="M112.51 25.1859C112.155 25.2796 111.765 25.3567 111.342 25.4169C110.926 25.4772 110.554 25.5074 110.225 25.5074C109.077 25.5074 108.204 25.1993 107.607 24.5831C107.009 23.9669 106.71 22.979 106.71 21.6194V15.6518H105.432V14.0644H106.71V10.8395H108.604V14.0644H112.51V15.6518H108.604V20.7654C108.604 21.3548 108.617 21.817 108.644 22.1518C108.671 22.48 108.765 22.7881 108.926 23.0761C109.073 23.344 109.275 23.5416 109.53 23.6689C109.792 23.7894 110.188 23.8497 110.718 23.8497C111.027 23.8497 111.349 23.8062 111.685 23.7191C112.02 23.6253 112.262 23.5483 112.41 23.488H112.51L112.51 25.1859Z" fill="#4F4F4F"/>
<path id="path4559" fill-rule="evenodd" clip-rule="evenodd" d="M121.663 25.2863H123.546L123.546 17.671C123.546 16.9477 123.435 16.3415 123.214 15.8526C122.992 15.3637 122.67 14.9652 122.247 14.6571C121.818 14.3423 121.307 14.1213 120.717 13.994C120.133 13.8601 119.445 13.7931 118.652 13.7931C117.974 13.7931 117.286 13.8534 116.588 13.9739C115.89 14.0945 115.356 14.205 114.987 14.3055V16.2244H115.088C115.739 15.9765 116.37 15.789 116.981 15.6618C117.592 15.5278 118.146 15.4608 118.642 15.4608C119.052 15.4608 119.445 15.4876 119.82 15.5412C120.196 15.5948 120.519 15.6986 120.787 15.8526C121.069 16.0134 121.284 16.2344 121.432 16.5157C121.586 16.797 121.663 17.152 121.663 17.5806V17.872C120.562 17.9256 119.532 18.0059 118.572 18.1131C117.612 18.2203 116.79 18.4245 116.105 18.7259C115.427 19.0273 114.903 19.4426 114.534 19.9717C114.171 20.4941 113.99 21.1806 113.99 22.0312C113.99 23.0694 114.343 23.9233 115.048 24.5931C115.752 25.2629 116.612 25.5977 117.625 25.5977C118.176 25.5977 118.656 25.5442 119.065 25.437C119.475 25.3365 119.837 25.2093 120.153 25.0552C120.421 24.9347 120.696 24.7739 120.978 24.573C121.267 24.3654 121.495 24.2046 121.663 24.0908V25.2863ZM121.663 19.3991V22.5235C121.193 22.8852 120.683 23.1966 120.133 23.4578C119.582 23.7123 118.975 23.8396 118.31 23.8396C117.511 23.8396 116.917 23.6789 116.528 23.3574C116.138 23.0292 115.944 22.5436 115.944 21.9006C115.944 21.3313 116.112 20.8859 116.447 20.5644C116.783 20.2363 117.223 19.9951 117.766 19.8411C118.223 19.7138 118.84 19.6167 119.619 19.5498C120.404 19.4828 121.086 19.4325 121.663 19.3991Z" fill="#4F4F4F"/>
<path id="path4561" d="M133.172 19.6503H126.889V17.8319H133.172V19.6503Z" fill="#4F4F4F"/>
<path id="path4563" fill-rule="evenodd" clip-rule="evenodd" d="M148.518 21.5189C149.116 20.4138 149.414 19.1815 149.414 17.8218C149.414 16.3684 149.129 15.1126 148.559 14.0544C147.988 12.9962 147.192 12.1489 146.172 11.5126C145.575 11.1443 144.843 10.8563 143.977 10.6486C143.118 10.4343 141.956 10.3271 140.493 10.3271H136.747V25.2864H140.533C141.909 25.2864 143.017 25.1926 143.856 25.0051C144.702 24.8176 145.467 24.5128 146.152 24.0909C147.139 23.4814 147.927 22.6241 148.518 21.5189ZM146.716 14.828C147.125 15.6317 147.33 16.6196 147.33 17.7917V17.7917C147.33 18.9571 147.142 19.9283 146.766 20.7052C146.397 21.4821 145.84 22.1084 145.095 22.5839C144.497 22.9657 143.839 23.2269 143.121 23.3675C142.409 23.5082 141.574 23.5785 140.614 23.5785H138.741V12.0351H140.614C141.54 12.0351 142.336 12.102 143 12.236C143.665 12.3633 144.292 12.5943 144.883 12.9292C145.695 13.3913 146.306 14.0243 146.716 14.828Z" fill="#4F4F4F"/>
<path id="path4565" d="M159.524 16.124H159.424C159.142 16.057 158.866 16.0101 158.598 15.9833C158.336 15.9498 158.024 15.9331 157.661 15.9331C157.077 15.9331 156.513 16.0637 155.97 16.3249C155.426 16.5794 154.902 16.911 154.399 17.3195V25.2864H152.506V14.0645H154.399V15.7221C155.151 15.1193 155.812 14.694 156.383 14.4462C156.96 14.1917 157.547 14.0645 158.145 14.0645C158.474 14.0645 158.712 14.0745 158.86 14.0946C159.007 14.1079 159.229 14.1381 159.524 14.185L159.524 16.124Z" fill="#4F4F4F"/>
<path id="path4567" fill-rule="evenodd" clip-rule="evenodd" d="M161.226 12.1858H163.36V10.2267H161.226V12.1858ZM161.346 25.2864H163.239L163.239 14.0644H161.346V25.2864Z" fill="#4F4F4F"/>
<path id="path4569" d="M176.733 14.0645L172.181 25.2864H170.278L165.757 14.0645H167.811L171.295 22.9958L174.749 14.0645H176.733Z" fill="#4F4F4F"/>
<path id="path4571" fill-rule="evenodd" clip-rule="evenodd" d="M180.176 19.8712H188.463L188.463 18.8465C188.463 17.219 188.05 15.9632 187.225 15.0791C186.406 14.195 185.238 13.7529 183.721 13.7529C182.083 13.7529 180.76 14.2921 179.753 15.3704C178.753 16.4487 178.253 17.9055 178.253 19.7406C178.253 21.5959 178.777 23.0292 179.824 24.0405C180.871 25.0452 182.328 25.5475 184.194 25.5475C184.926 25.5475 185.624 25.4571 186.288 25.2763C186.953 25.0954 187.604 24.8711 188.242 24.6032V22.5436H188.141C187.812 22.8383 187.258 23.1397 186.48 23.4478C185.708 23.7492 184.939 23.8999 184.174 23.8999C183.596 23.8999 183.066 23.8195 182.583 23.6588C182.106 23.498 181.693 23.2569 181.344 22.9354C180.982 22.6072 180.696 22.1886 180.488 21.6796C180.28 21.1639 180.176 20.5611 180.176 19.8712ZM185.865 16.1239C186.362 16.6664 186.614 17.4333 186.621 18.4246H180.176C180.257 17.5405 180.596 16.8004 181.193 16.2043C181.797 15.6082 182.606 15.3101 183.62 15.3101C184.627 15.3101 185.375 15.5814 185.865 16.1239Z" fill="#4F4F4F"/>
<path id="path4573" d="M200.738 25.2863H198.845V18.8967C198.845 18.381 198.815 17.8988 198.754 17.45C198.694 16.9946 198.583 16.6396 198.422 16.3851C198.254 16.1038 198.012 15.8962 197.697 15.7622C197.381 15.6216 196.972 15.5513 196.468 15.5513C195.952 15.5513 195.411 15.6785 194.847 15.933C194.283 16.1875 193.743 16.5124 193.226 16.9075V25.2863H191.333V14.0644H193.226V15.3101C193.817 14.8212 194.428 14.4394 195.059 14.1648C195.69 13.8902 196.338 13.7529 197.002 13.7529C198.217 13.7529 199.144 14.118 199.781 14.848C200.419 15.578 200.738 16.6296 200.738 18.0026L200.738 25.2863Z" fill="#4F4F4F"/>
</g>
<g id="g928">
<path id="path4575" fill-rule="evenodd" clip-rule="evenodd" d="M90.276 44.6946C90.8735 43.5895 91.1722 42.3571 91.1722 40.9975C91.1722 39.5441 90.8869 38.2883 90.3163 37.2301C89.7457 36.1718 88.9502 35.3246 87.9299 34.6883C87.3324 34.3199 86.6007 34.0319 85.7347 33.8243C84.8755 33.61 83.7141 33.5028 82.2507 33.5028H78.5049V48.462H82.291C83.6671 48.462 84.7748 48.3683 85.6139 48.1807C86.4597 47.9932 87.225 47.6885 87.9097 47.2665C88.8965 46.657 89.6853 45.7997 90.276 44.6946ZM88.4736 38.0037C88.8831 38.8074 89.0878 39.7953 89.0878 40.9674V40.9674C89.0878 42.1328 88.8999 43.1039 88.524 43.8809C88.1547 44.6578 87.5976 45.284 86.8524 45.7596C86.255 46.1413 85.5971 46.4025 84.8788 46.5432C84.1673 46.6838 83.3315 46.7542 82.3715 46.7542H80.4986V35.2107H82.3715C83.2979 35.2107 84.0934 35.2777 84.758 35.4117C85.4226 35.5389 86.0502 35.77 86.641 36.1049C87.4532 36.567 88.0641 37.1999 88.4736 38.0037Z" fill="#4F4F4F"/>
<path id="path4577" fill-rule="evenodd" clip-rule="evenodd" d="M102.44 47.1861C103.379 46.1278 103.849 44.6845 103.849 42.856C103.849 41.0276 103.379 39.5842 102.44 38.526C101.5 37.4611 100.241 36.9286 98.6636 36.9286C97.0726 36.9286 95.8072 37.4611 94.8674 38.526C93.9343 39.5842 93.4678 41.0276 93.4678 42.856C93.4678 44.6845 93.9343 46.1278 94.8674 47.1861C95.8072 48.2443 97.0726 48.7734 98.6636 48.7734C100.241 48.7734 101.5 48.2443 102.44 47.1861ZM101.04 39.6211C101.611 40.3243 101.896 41.4026 101.896 42.856C101.896 44.2759 101.607 45.3476 101.03 46.0709C100.459 46.7876 99.6705 47.1459 98.6636 47.1459C97.6432 47.1459 96.8478 46.7842 96.2771 46.0609C95.7065 45.3308 95.4213 44.2625 95.4213 42.856C95.4213 41.4026 95.7032 40.3243 96.2671 39.6211C96.8377 38.9111 97.6365 38.5561 98.6636 38.5561C99.6773 38.5561 100.469 38.9111 101.04 39.6211Z" fill="#4F4F4F"/>
<path id="path4579" d="M115.107 47.7588C114.476 48.0602 113.875 48.2946 113.305 48.462C112.741 48.6295 112.14 48.7132 111.502 48.7132C110.69 48.7132 109.945 48.596 109.267 48.3616C108.589 48.1205 108.008 47.7588 107.525 47.2765C107.035 46.7943 106.656 46.1848 106.387 45.4481C106.119 44.7113 105.984 43.8507 105.984 42.8661C105.984 41.031 106.488 39.591 107.495 38.5461C108.508 37.5013 109.844 36.9789 111.502 36.9789C112.147 36.9789 112.778 37.0693 113.395 37.2501C114.02 37.431 114.59 37.652 115.107 37.9132V40.0129H115.007C114.429 39.5642 113.832 39.2193 113.214 38.9781C112.603 38.737 112.006 38.6165 111.422 38.6165C110.348 38.6165 109.499 38.9781 108.874 39.7015C108.257 40.4181 107.948 41.473 107.948 42.8661C107.948 44.2191 108.25 45.2605 108.854 45.9906C109.465 46.7139 110.321 47.0756 111.422 47.0756C111.804 47.0756 112.194 47.0254 112.59 46.9249C112.986 46.8245 113.342 46.6938 113.657 46.5331C113.932 46.3925 114.191 46.2451 114.433 46.0911C114.674 45.9303 114.866 45.793 115.007 45.6791H115.107V47.7588Z" fill="#4F4F4F"/>
<path id="path4581" d="M126.869 48.4621H124.976V47.2163C124.338 47.7186 123.727 48.1037 123.143 48.3716C122.559 48.6396 121.915 48.7735 121.21 48.7735C120.028 48.7735 119.109 48.4152 118.451 47.6985C117.793 46.9752 117.464 45.9169 117.464 44.5238V37.2401H119.357V43.6297C119.357 44.199 119.384 44.6879 119.437 45.0965C119.491 45.4983 119.605 45.8433 119.78 46.1313C119.961 46.426 120.196 46.6403 120.485 46.7743C120.773 46.9082 121.193 46.9752 121.743 46.9752C122.233 46.9752 122.767 46.8479 123.344 46.5934C123.928 46.3389 124.472 46.0141 124.976 45.6189V37.2401H126.869L126.869 48.4621Z" fill="#4F4F4F"/>
<path id="path4583" d="M147.007 48.462H145.114V42.0724C145.114 41.5902 145.091 41.1247 145.044 40.6759C145.004 40.2272 144.913 39.8689 144.772 39.601C144.618 39.313 144.396 39.0953 144.107 38.9479C143.819 38.8006 143.403 38.7269 142.859 38.7269C142.329 38.7269 141.798 38.8609 141.268 39.1288C140.738 39.39 140.207 39.7249 139.677 40.1334C139.697 40.2875 139.714 40.4683 139.727 40.6759C139.741 40.8769 139.748 41.0778 139.748 41.2787V48.462H137.855V42.0724C137.855 41.5768 137.831 41.1079 137.784 40.6659C137.744 40.2171 137.653 39.8588 137.512 39.5909C137.358 39.3029 137.137 39.0886 136.848 38.9479C136.559 38.8006 136.143 38.7269 135.599 38.7269C135.082 38.7269 134.562 38.8542 134.038 39.1087C133.522 39.3632 133.005 39.688 132.488 40.0832V48.462H130.595V37.24H132.488V38.4858C133.079 37.9969 133.666 37.6151 134.25 37.3405C134.841 37.0659 135.468 36.9286 136.133 36.9286C136.898 36.9286 137.546 37.0893 138.076 37.4108C138.613 37.7323 139.013 38.1777 139.275 38.747C140.04 38.104 140.738 37.6419 141.369 37.3606C142 37.0726 142.675 36.9286 143.393 36.9286C144.628 36.9286 145.538 37.3037 146.122 38.0538C146.713 38.7972 147.008 39.8387 147.008 41.1783L147.007 48.462Z" fill="#4F4F4F"/>
<path id="path4585" fill-rule="evenodd" clip-rule="evenodd" d="M151.78 43.0469H160.067L160.067 42.0222C160.067 40.3946 159.654 39.1388 158.828 38.2547C158.009 37.3706 156.841 36.9286 155.324 36.9286C153.686 36.9286 152.364 37.4678 151.357 38.5461C150.357 39.6244 149.856 41.0811 149.856 42.9163C149.856 44.7716 150.38 46.2049 151.427 47.2162C152.475 48.2209 153.931 48.7232 155.797 48.7232C156.529 48.7232 157.227 48.6328 157.892 48.4519C158.556 48.2711 159.208 48.0467 159.845 47.7788V45.7193H159.745C159.416 46.014 158.862 46.3154 158.083 46.6235C157.311 46.9249 156.543 47.0756 155.777 47.0756C155.2 47.0756 154.67 46.9952 154.186 46.8344C153.71 46.6737 153.297 46.4326 152.948 46.1111C152.585 45.7829 152.3 45.3643 152.092 44.8553C151.884 44.3396 151.78 43.7368 151.78 43.0469ZM157.469 39.2996C157.966 39.8421 158.218 40.609 158.224 41.6002H151.78C151.86 40.7161 152.199 39.976 152.797 39.3799C153.401 38.7838 154.21 38.4858 155.223 38.4858C156.23 38.4858 156.979 38.7571 157.469 39.2996Z" fill="#4F4F4F"/>
<path id="path4587" d="M172.341 48.462H170.448V42.0724C170.448 41.5567 170.418 41.0744 170.358 40.6257C170.297 40.1703 170.186 39.8153 170.025 39.5608C169.858 39.2795 169.616 39.0718 169.3 38.9379C168.985 38.7972 168.575 38.7269 168.072 38.7269C167.555 38.7269 167.015 38.8542 166.451 39.1087C165.887 39.3632 165.346 39.688 164.83 40.0832V48.462H162.937V37.24H164.83V38.4858C165.42 37.9969 166.031 37.6151 166.662 37.3405C167.293 37.0659 167.941 36.9286 168.606 36.9286C169.821 36.9286 170.747 37.2936 171.385 38.0237C172.023 38.7537 172.341 39.8052 172.341 41.1783L172.341 48.462Z" fill="#4F4F4F"/>
<path id="path4589" d="M181.827 48.3615C181.471 48.4553 181.082 48.5323 180.659 48.5926C180.243 48.6529 179.87 48.683 179.541 48.683C178.393 48.683 177.521 48.3749 176.923 47.7588C176.326 47.1426 176.027 46.1547 176.027 44.795V38.8274H174.748V37.2401H176.027V34.0151H177.92V37.2401H181.827V38.8274H177.92V43.9411C177.92 44.5305 177.933 44.9926 177.96 45.3275C177.987 45.6557 178.081 45.9638 178.242 46.2518C178.39 46.5197 178.591 46.7173 178.846 46.8445C179.108 46.9651 179.504 47.0253 180.035 47.0253C180.343 47.0253 180.666 46.9818 181.001 46.8947C181.337 46.801 181.579 46.724 181.726 46.6637H181.827L181.827 48.3615Z" fill="#4F4F4F"/>
<path id="path4591" d="M192.159 45.2271C192.159 46.2518 191.732 47.0924 190.88 47.7488C190.034 48.4051 188.876 48.7333 187.406 48.7333C186.574 48.7333 185.808 48.6362 185.11 48.442C184.419 48.241 183.838 48.0234 183.368 47.789V45.6691H183.469C184.066 46.1179 184.731 46.4762 185.463 46.7441C186.194 47.0053 186.896 47.1359 187.567 47.1359C188.4 47.1359 189.051 47.002 189.521 46.7341C189.991 46.4662 190.225 46.0442 190.225 45.4682C190.225 45.0262 190.098 44.6913 189.843 44.4636C189.588 44.2358 189.098 44.0416 188.373 43.8809C188.104 43.8206 187.752 43.7503 187.315 43.6699C186.886 43.5895 186.493 43.5025 186.137 43.4087C185.15 43.1475 184.449 42.7657 184.033 42.2634C183.623 41.7544 183.419 41.1315 183.419 40.3947C183.419 39.9326 183.513 39.4972 183.7 39.0887C183.895 38.6801 184.187 38.3151 184.577 37.9936C184.952 37.6788 185.429 37.431 186.006 37.2502C186.59 37.0626 187.242 36.9689 187.96 36.9689C188.631 36.9689 189.309 37.0526 189.994 37.22C190.685 37.3808 191.259 37.5784 191.716 37.8128V39.8321H191.615C191.132 39.4771 190.544 39.1791 189.853 38.938C189.161 38.6902 188.483 38.5663 187.819 38.5663C187.127 38.5663 186.543 38.7002 186.067 38.9681C185.59 39.2293 185.352 39.6211 185.352 40.1436C185.352 40.6057 185.496 40.954 185.785 41.1884C186.067 41.4228 186.523 41.6137 187.154 41.7611C187.503 41.8414 187.893 41.9218 188.322 42.0022C188.759 42.0825 189.121 42.1562 189.41 42.2232C190.289 42.4241 190.967 42.7691 191.444 43.258C191.92 43.7536 192.159 44.41 192.159 45.2271V45.2271Z" fill="#4F4F4F"/>
</g>
</g>
</g>
</g>
<defs>
<linearGradient id="paint0_linear_0_35660" x1="5.73259" y1="23.3071" x2="41.1707" y2="61.6936" gradientUnits="userSpaceOnUse">
<stop stop-color="#F9A03C"/>
<stop offset="1" stop-color="#F7974E"/>
</linearGradient>
<linearGradient id="paint1_linear_0_35660" x1="-21.0801" y1="29.3096" x2="12.5949" y2="62.0638" gradientUnits="userSpaceOnUse">
<stop stop-color="#F9A03C"/>
<stop offset="1" stop-color="#F7974E"/>
</linearGradient>
<linearGradient id="paint2_linear_0_35660" x1="-6.67215" y1="38.7552" x2="22.8013" y2="73.5626" gradientUnits="userSpaceOnUse">
<stop stop-color="#F9A03C"/>
<stop offset="1" stop-color="#F7974E"/>
</linearGradient>
<linearGradient id="paint3_linear_0_35660" x1="-21.031" y1="20.2656" x2="18.5342" y2="75.6006" gradientUnits="userSpaceOnUse">
<stop stop-color="#F26D58"/>
<stop offset="1" stop-color="#F9A03C"/>
</linearGradient>
<linearGradient id="paint4_linear_0_35660" x1="15.6846" y1="24.0514" x2="56.8202" y2="48.9601" gradientUnits="userSpaceOnUse">
<stop stop-color="#B84E51"/>
<stop offset="1" stop-color="#F68E48"/>
</linearGradient>
<linearGradient id="paint5_linear_0_35660" x1="-5.8822" y1="41.7895" x2="-5.32725" y2="68.6502" gradientUnits="userSpaceOnUse">
<stop stop-color="#F9A03C"/>
<stop offset="1" stop-color="#F7974E"/>
</linearGradient>
</defs>
</svg>
