<svg width="48" height="48" viewBox="0 0 48 48" fill="none" xmlns="http://www.w3.org/2000/svg">
<path opacity="0.6" d="M17 24.8H27V23.2H17V24.8Z" fill="#33C8C3"/>
<path fill-rule="evenodd" clip-rule="evenodd" d="M8.0002 6.19995H10.0002C10.953 6.19995 11.7946 6.67581 12.3003 7.40283C11.7875 7.59252 11.3151 7.86557 10.8996 8.20552C10.6797 7.95679 10.3583 7.79995 10.0002 7.79995H8.0002C7.33745 7.79995 6.8002 8.33721 6.8002 8.99995V39C6.8002 39.6627 7.33745 40.2 8.0002 40.2H10.0002C10.3583 40.2 10.6797 40.0431 10.8996 39.7944C11.3151 40.1343 11.7875 40.4074 12.3003 40.5971C11.7946 41.3241 10.953 41.7999 10.0002 41.7999H8.0002C6.4538 41.7999 5.2002 40.5463 5.2002 39V8.99995C5.2002 7.45355 6.4538 6.19995 8.0002 6.19995ZM11.2002 16.0217V19.9782C11.6783 19.6448 12.2186 19.3944 12.8002 19.248V16.7519C12.2186 16.6055 11.6783 16.3551 11.2002 16.0217ZM11.2002 28.0217C11.6783 28.3551 12.2186 28.6055 12.8002 28.7519V31.248C12.2186 31.3944 11.6783 31.6448 11.2002 31.9782V28.0217ZM43.3002 13.5V11.5C43.3002 9.95355 42.0466 8.69995 40.5002 8.69995H33.5002C32.0551 8.69995 30.8658 9.79462 30.7161 11.2H17.7158C17.3485 9.48542 15.8244 8.19995 14.0002 8.19995C11.9015 8.19995 10.2002 9.90127 10.2002 12C10.2002 14.0986 11.9015 15.8 14.0002 15.8C15.8244 15.8 17.3485 14.5145 17.7158 12.8H30.7002V13.5C30.7002 15.0463 31.9538 16.3 33.5002 16.3L40.5002 16.3C42.0466 16.3 43.3002 15.0463 43.3002 13.5ZM40.5002 10.3C41.1629 10.3 41.7002 10.8372 41.7002 11.5V13.5C41.7002 14.1627 41.1629 14.7 40.5002 14.7H33.5002C32.8375 14.7 32.3002 14.1627 32.3002 13.5V11.5C32.3002 10.8372 32.8375 10.3 33.5002 10.3H40.5002ZM17.7158 35.2C17.3485 33.4854 15.8244 32.2 14.0002 32.2C11.9015 32.2 10.2002 33.9013 10.2002 36C10.2002 38.0986 11.9015 39.7999 14.0002 39.7999C15.8244 39.7999 17.3485 38.5145 17.7158 36.8H22.7002V37.5C22.7002 39.0463 23.9538 40.2999 25.5002 40.2999H40.5002C42.0466 40.2999 43.3002 39.0463 43.3002 37.5V35.5C43.3002 33.9536 42.0466 32.7 40.5002 32.7H25.5002C24.0551 32.7 22.8658 33.7946 22.7161 35.2H17.7158ZM41.7002 35.5C41.7002 34.8372 41.1629 34.3 40.5002 34.3H25.5002C24.8375 34.3 24.3002 34.8372 24.3002 35.5V37.5C24.3002 38.1627 24.8375 38.7 25.5002 38.7H40.5002C41.1629 38.7 41.7002 38.1627 41.7002 37.5V35.5ZM11.8002 36C11.8002 34.7849 12.7852 33.8 14.0002 33.8C15.2152 33.8 16.2002 34.7849 16.2002 36C16.2002 37.215 15.2152 38.2 14.0002 38.2C12.7852 38.2 11.8002 37.215 11.8002 36ZM14.0002 27.8C11.9015 27.8 10.2002 26.0986 10.2002 24C10.2002 21.9013 11.9015 20.2 14.0002 20.2C16.0989 20.2 17.8002 21.9013 17.8002 24C17.8002 26.0986 16.0989 27.8 14.0002 27.8ZM14.0002 21.8C12.7852 21.8 11.8002 22.7849 11.8002 24C11.8002 25.215 12.7852 26.2 14.0002 26.2C15.2152 26.2 16.2002 25.215 16.2002 24C16.2002 22.7849 15.2152 21.8 14.0002 21.8ZM11.8002 12C11.8002 10.7849 12.7852 9.79995 14.0002 9.79995C15.2152 9.79995 16.2002 10.7849 16.2002 12C16.2002 13.215 15.2152 14.2 14.0002 14.2C12.7852 14.2 11.8002 13.215 11.8002 12Z" fill="white"/>
<path fill-rule="evenodd" clip-rule="evenodd" d="M29.9998 27.8C27.9011 27.8 26.1998 26.0986 26.1998 24C26.1998 21.9013 27.9011 20.2 29.9998 20.2C32.0985 20.2 33.7998 21.9013 33.7998 24C33.7998 26.0986 32.0985 27.8 29.9998 27.8ZM29.9998 21.8C28.7848 21.8 27.7998 22.7849 27.7998 24C27.7998 25.215 28.7848 26.2 29.9998 26.2C31.2148 26.2 32.1998 25.215 32.1998 24C32.1998 22.7849 31.2148 21.8 29.9998 21.8Z" fill="#33C8C3"/>
<path fill-rule="evenodd" clip-rule="evenodd" d="M39.9998 27.8C37.9011 27.8 36.1998 26.0986 36.1998 24C36.1998 21.9013 37.9011 20.2 39.9998 20.2C42.0985 20.2 43.7998 21.9013 43.7998 24C43.7998 26.0986 42.0985 27.8 39.9998 27.8ZM39.9998 21.8C38.7848 21.8 37.7998 22.7849 37.7998 24C37.7998 25.215 38.7848 26.2 39.9998 26.2C41.2148 26.2 42.1998 25.215 42.1998 24C42.1998 22.7849 41.2148 21.8 39.9998 21.8Z" fill="#33C8C3"/>
</svg>
