<svg width="166" height="40" viewBox="0 0 166 40" fill="none" xmlns="http://www.w3.org/2000/svg">
<g id="exasol-vector-logo 2">
<path id="Path" d="M0 0H23.1233V6.08943H7.0137V16.3031H20.0274V22.4202H7.0137V32.9106H24V39H0V0Z" fill="#002C40"/>
<g id="Group">
<path id="Shape" fill-rule="evenodd" clip-rule="evenodd" d="M73.2849 39.6966C76.7045 39.6966 80.7308 38.1794 82.5785 35.1449V39.0621H88.6179V11.4207H82.5785V15.338C80.6756 12.1932 76.5942 10.8414 73.2849 10.8414C65.8114 10.8414 59.248 16.4138 59.248 25.2414C59.248 34.069 65.839 39.6966 73.2849 39.6966ZM82.5233 25.2138C82.5233 30.6483 78.497 33.7932 74.0019 33.7932C69.3689 33.7932 65.5357 30.2897 65.5357 25.2138C65.5357 20.1104 69.3965 16.8001 74.0019 16.8001C78.1385 16.8001 82.5233 19.7518 82.5233 25.2138Z" fill="#002C40"/>
<path id="Path_2" d="M97.2222 30.7862C97.2222 30.7862 100.283 33.8483 104.834 33.8483C106.792 33.8483 108.501 32.9655 108.501 31.338C108.501 27.1724 94.9333 27.7242 94.9333 18.7311C94.9333 13.5173 99.5938 10.5104 105.606 10.5104C111.893 10.5104 114.954 13.6828 114.954 13.6828L112.39 18.8414C112.39 18.8414 109.825 16.4414 105.551 16.4414C103.73 16.4414 101.993 17.2138 101.993 18.9518C101.993 22.8966 115.561 22.4 115.561 31.3931C115.561 36.0552 111.507 39.7793 104.889 39.7793C97.9392 39.7793 94.0508 35.669 94.0508 35.669L97.2222 30.7862Z" fill="#002C40"/>
<path id="Shape_2" fill-rule="evenodd" clip-rule="evenodd" d="M149.785 25.1587C149.785 16.6069 142.945 10.538 134.396 10.538C125.93 10.538 119.091 16.6069 119.063 25.1587C119.063 33.7655 125.903 39.7793 134.452 39.7793C142.945 39.7793 149.785 33.7655 149.785 25.1587ZM142.725 25.1587C142.725 30.3724 138.947 33.8759 134.452 33.8759C129.929 33.8759 126.151 30.3449 126.123 25.1587C126.123 20 129.901 16.4414 134.452 16.4414C138.947 16.4414 142.725 20 142.725 25.1587Z" fill="#002C40"/>
<path id="Path_3" d="M154.997 0.248291H161.891V29.3793C161.891 32.4414 162.939 33.2138 164.732 33.2138C165.283 33.2138 165.78 33.1586 165.78 33.1586V39.2276C165.78 39.2276 164.732 39.3931 163.601 39.3931C159.768 39.3931 154.997 38.4 154.997 30.4V0.248291H154.997Z" fill="#002C40"/>
</g>
<path id="Path_4" d="M28 39L38.7258 24.9581L28.0279 11H36.3021L47 24.9581L36.2463 39H28Z" fill="#45B035"/>
<path id="Path_5" d="M44 18.7955L47.9507 24L57 12H49.0986L44 18.7955Z" fill="#002C40"/>
<path id="Path_6" d="M44 32.2045L47.9507 27L57 39H49.0986L44 32.2045Z" fill="#002C40"/>
</g>
</svg>
