<svg width="250" height="62" viewBox="0 0 250 62" fill="none" xmlns="http://www.w3.org/2000/svg">
<g id="logo/ informatica copy">
<g id="logo/ informatica">
<path id="Path" d="M27.5752 35.8092L45.9393 46.0644L46.6272 38.2725L41.5265 32.8433L34.0014 31.6033L27.5752 35.8092Z" fill="#FF4D00"/>
<path id="Path_2" d="M30.6797 0.343506L45.9398 46.0643L61.1998 30.824L30.6797 0.343506Z" fill="#FF7D00"/>
<path id="Path_3" d="M28.2212 24.557L27.5752 35.8092L51.0316 30.824L28.2212 24.557Z" fill="#001AFF"/>
<path id="Path_4" d="M0.15918 30.8241L16.4511 47.1033L19.488 43.0398L18.9427 38.1636L11.4595 33.3209L0.15918 30.8241Z" fill="#E23400"/>
<path id="Path_5" d="M29.0266 1.99402L0.15918 30.824L18.9427 38.1635L29.0266 1.99402Z" fill="#FF4D00"/>
<path id="Path_6" d="M18.9428 38.1636L16.4512 47.1033L30.6794 61.3047L44.0435 47.9579L18.9428 38.1636Z" fill="#FF7D00"/>
<path id="Path_7" d="M81.5184 39.5208H78.666V16.4468L81.5184 14.7878V39.5208Z" fill="#373737"/>
<path id="Path_8" d="M209.287 18.9686H206.351V16.7065V15.9105H209.287V18.9686Z" fill="#373737"/>
<path id="Path_9" d="M94.2789 21.7335C92.0916 21.6788 90.0365 22.7766 88.8678 24.624V22.1105H86.0742V39.5208H88.8678V29.5672C88.8678 26.5259 90.8058 24.3978 93.5826 24.3978C96.3595 24.3978 97.9199 26.2578 97.9199 29.3662V39.5208H100.672V28.7462C100.747 26.9218 100.15 25.1331 98.9937 23.7191C97.7875 22.4018 96.0653 21.6765 94.2789 21.7335Z" fill="#373737"/>
<path id="Shape" fill-rule="evenodd" clip-rule="evenodd" d="M116.728 24.4397C118.336 22.7029 120.601 21.7209 122.97 21.7335C125.338 21.7392 127.603 22.7013 129.249 24.401C130.896 26.1006 131.784 28.3932 131.711 30.757V30.8241C131.719 33.1949 130.818 35.4789 129.194 37.2084C127.571 38.9539 125.287 39.9362 122.902 39.9146C120.551 39.8866 118.309 38.9141 116.683 37.2164C115.058 35.5187 114.185 33.2389 114.262 30.8911V30.8241C114.243 28.4605 115.125 26.1783 116.728 24.4397ZM128.792 30.8911V30.8241C128.792 27.1878 126.157 24.3392 122.886 24.3392C119.614 24.3392 117.097 27.0957 117.097 30.757V30.8241C117.097 34.4435 119.664 37.2754 122.97 37.2754C126.275 37.2754 128.792 34.5357 128.792 30.8911Z" fill="#373737"/>
<path id="Path_10" d="M137.827 25.9227V22.1022H135.067V39.5209H137.861V32.5417C137.861 27.9 140.327 24.7833 144.153 24.7833H144.522V21.7838H144.296C141.619 21.6833 139.262 23.2165 137.827 25.9227Z" fill="#373737"/>
<path id="Path_11" d="M166.066 21.7335C163.719 21.6966 161.534 22.9222 160.344 24.9424C159.377 22.9315 157.317 21.6751 155.084 21.7335C153.009 21.7186 151.077 22.7898 149.992 24.557V22.1022H147.198V39.5208H149.992V29.6008C149.992 26.5846 151.829 24.4062 154.354 24.4062C156.879 24.4062 158.373 26.2411 158.373 29.3076V39.5208H161.166V29.4668C161.106 28.0927 161.561 26.7454 162.442 25.6881C163.216 24.8374 164.319 24.3586 165.47 24.3727C168.046 24.3727 169.522 26.1824 169.522 29.3411V39.5208H172.316V28.7797C172.307 24.4314 169.916 21.7335 166.066 21.7335Z" fill="#373737"/>
<path id="Path_12" d="M202.962 24.6995V22.1022H197.718V16.0363L194.925 17.6617V22.1022H191.888V24.7079H194.925V34.8206C194.925 39.169 197.928 39.8476 199.715 39.8476C200.769 39.864 201.81 39.607 202.735 39.1019L202.827 39.0517V36.4376L202.567 36.5717C201.865 36.9543 201.077 37.1532 200.277 37.1498C198.549 37.1498 197.71 36.3119 197.71 34.4938V24.6995H202.962Z" fill="#373737"/>
<path id="Path_13" d="M226.141 34.7955C224.98 36.3178 223.198 37.2403 221.283 37.309C218.02 37.309 215.461 34.4771 215.461 30.8576V30.7906C215.461 27.1879 217.978 24.3728 221.124 24.3728C223.347 24.3728 224.756 25.5792 225.948 26.8863L226.082 27.0371L227.936 24.9844L227.827 24.8671C226.198 22.8666 223.738 21.7263 221.157 21.7755C218.83 21.7724 216.61 22.756 215.05 24.4817C213.462 26.2277 212.59 28.5071 212.609 30.866V30.933C212.593 33.2764 213.465 35.5391 215.05 37.2671C216.615 38.9778 218.829 39.9511 221.149 39.9482C223.815 39.9561 226.33 38.7156 227.944 36.5968L228.053 36.4711L226.25 34.7033L226.141 34.7955Z" fill="#373737"/>
<path id="Shape_2" fill-rule="evenodd" clip-rule="evenodd" d="M176.87 23.1662C178.735 22.2226 180.795 21.7317 182.885 21.7335C185.276 21.7335 187.08 22.387 188.297 23.6773C189.517 25.1403 190.132 27.0132 190.016 28.9138V39.4789H187.349V37.2503C185.928 38.948 183.808 39.9046 181.594 39.8476C178.473 39.8476 175.318 37.9541 175.318 34.3514V34.3179C175.318 30.8576 177.927 28.8803 182.474 28.8803H187.349C187.349 25.7049 185.637 24.3308 182.634 24.3308C180.931 24.3529 179.258 24.7779 177.751 25.5708L177.567 25.6546L176.728 23.2333L176.87 23.1662ZM187.349 33.0695V31.1257H182.726C178.934 31.1257 178.137 32.8097 178.137 34.2257V34.2927C178.137 35.8343 179.37 37.51 182.063 37.51C185.075 37.51 187.349 35.583 187.349 33.0695Z" fill="#373737"/>
<path id="Path_14" d="M108.599 20.4768C108.599 17.9633 109.245 17.0333 111.225 17.0333C112.014 17.0512 112.795 17.1925 113.54 17.4522L113.717 17.5024V14.9219H113.658C112.78 14.6 111.849 14.4492 110.915 14.4779C109.565 14.4134 108.25 14.911 107.282 15.8519C106.233 17.1114 105.708 18.7247 105.814 20.3595V22.1106H102.769V24.7162H105.805V39.5208H108.599V24.6995H113.842V22.1022H108.599V20.4768Z" fill="#373737"/>
<path id="Path_15" d="M209.212 39.5208H206.418V23.9538V22.1022H209.212V39.5208Z" fill="#373737"/>
<path id="Shape_3" fill-rule="evenodd" clip-rule="evenodd" d="M231.342 23.1662C233.206 22.2226 235.267 21.7317 237.357 21.7335C239.715 21.7335 241.535 22.387 242.768 23.6773C243.988 25.1403 244.604 27.0132 244.488 28.9138V39.4873H241.82V37.2503C240.399 38.948 238.28 39.9046 236.065 39.8476C232.944 39.8476 229.79 37.9541 229.79 34.3514V34.3179C229.79 30.8576 232.399 28.8803 236.946 28.8803H241.82C241.82 25.7049 240.109 24.3308 237.105 24.3308C235.403 24.3532 233.73 24.7782 232.223 25.5708L232.038 25.6546L231.199 23.2333L231.342 23.1662ZM241.82 33.0695V31.1257H237.198C233.406 31.1257 232.609 32.8097 232.609 34.2257V34.2927C232.609 35.8343 233.842 37.51 236.535 37.51C239.547 37.51 241.82 35.583 241.82 33.0695Z" fill="#373737"/>
<path id="Path_16" d="M246.149 22.4289H245.512V22.1022H247.19V22.4289H246.552V24.1046H246.191L246.149 22.4289Z" fill="#373737"/>
<path id="Path_17" d="M247.483 22.1022H247.861L248.473 23.0573L249.086 22.1022H249.463V24.1214H249.161V22.6719L248.524 23.6187L247.894 22.6719V24.113H247.483V22.1022Z" fill="#373737"/>
</g>
</g>
</svg>
