<svg width="48" height="48" viewBox="0 0 48 48" fill="none" xmlns="http://www.w3.org/2000/svg">
<path opacity="0.6" d="M24.8002 29V35H23.2002V29H24.8002Z" fill="#33C8C3"/>
<path opacity="0.6" d="M10.7992 29L10.8002 35H9.20022L9.19922 29H10.7992Z" fill="#33C8C3"/>
<path opacity="0.6" d="M38.7992 29L38.8002 35H37.2002V29H38.7992Z" fill="#33C8C3"/>
<path fill-rule="evenodd" clip-rule="evenodd" d="M20.8002 9.99995C20.8002 12.0986 19.0989 13.8 17.0002 13.8C14.9015 13.8 13.2002 12.0986 13.2002 9.99995C13.2002 7.90127 14.9015 6.19995 17.0002 6.19995C19.0989 6.19995 20.8002 7.90127 20.8002 9.99995ZM14.8002 9.99995C14.8002 11.215 15.7852 12.2 17.0002 12.2C18.2152 12.2 19.2002 11.215 19.2002 9.99995C19.2002 8.78492 18.2152 7.79995 17.0002 7.79995C15.7852 7.79995 14.8002 8.78492 14.8002 9.99995Z" fill="white"/>
<path fill-rule="evenodd" clip-rule="evenodd" d="M34.8002 9.99995C34.8002 12.0986 33.0989 13.8 31.0002 13.8C28.9015 13.8 27.2002 12.0986 27.2002 9.99995C27.2002 7.90127 28.9015 6.19995 31.0002 6.19995C33.0989 6.19995 34.8002 7.90127 34.8002 9.99995ZM28.8002 9.99995C28.8002 11.215 29.7852 12.2 31.0002 12.2C32.2152 12.2 33.2002 11.215 33.2002 9.99995C33.2002 8.78492 32.2152 7.79995 31.0002 7.79995C29.7852 7.79995 28.8002 8.78492 28.8002 9.99995Z" fill="white"/>
<path fill-rule="evenodd" clip-rule="evenodd" d="M24 41C25.6569 41 27 39.6569 27 38C27 36.3431 25.6569 35 24 35C22.3431 35 21 36.3431 21 38C21 39.6569 22.3431 41 24 41Z" stroke="#33C8C3" stroke-width="1.6"/>
<path fill-rule="evenodd" clip-rule="evenodd" d="M38 41C39.6569 41 41 39.6569 41 38C41 36.3431 39.6569 35 38 35C36.3431 35 35 36.3431 35 38C35 39.6569 36.3431 41 38 41Z" stroke="#33C8C3" stroke-width="1.6"/>
<path fill-rule="evenodd" clip-rule="evenodd" d="M10 41C11.6569 41 13 39.6569 13 38C13 36.3431 11.6569 35 10 35C8.34315 35 7 36.3431 7 38C7 39.6569 8.34315 41 10 41Z" stroke="#33C8C3" stroke-width="1.6"/>
<path d="M16.2002 13V21H17.8002V13H16.2002Z" fill="white"/>
<path d="M30.2002 13V21H31.8002V13H30.2002Z" fill="white"/>
<path fill-rule="evenodd" clip-rule="evenodd" d="M41.7998 25V23C41.7998 21.4536 40.5462 20.2 38.9998 20.2L8.99981 20.2C7.45341 20.2 6.19981 21.4536 6.19981 23V25C6.19981 26.5463 7.45341 27.8 8.99981 27.8L38.9998 27.8C40.5462 27.8 41.7998 26.5463 41.7998 25ZM38.9998 21.8C39.6625 21.8 40.1998 22.3372 40.1998 23V25C40.1998 25.6627 39.6625 26.2 38.9998 26.2L8.99981 26.2C8.33706 26.2 7.7998 25.6627 7.7998 25V23C7.7998 22.3372 8.33706 21.8 8.99981 21.8L38.9998 21.8Z" fill="white"/>
</svg>
