<svg width="76" height="45" viewBox="0 0 76 45" fill="none" xmlns="http://www.w3.org/2000/svg">
<g id="logo-aws" opacity="0.4">
<g id="amazon-web-services-2">
<path id="Shape" fill-rule="evenodd" clip-rule="evenodd" d="M59.9513 23.0287C61.2151 23.3284 62.5294 23.4783 63.8438 23.4783C65.1329 23.4783 66.3209 23.3034 67.4583 22.9537C68.5452 22.629 69.4804 22.1795 70.2639 21.555C71.0475 20.9556 71.6541 20.2063 72.1091 19.3571C72.5388 18.5079 72.7663 17.5338 72.7663 16.4598C72.7663 15.161 72.3871 13.987 71.6036 12.963C70.82 11.9389 69.5057 11.1397 67.6858 10.5652L64.0966 9.44126C62.7569 9.01665 61.8217 8.54209 61.3162 8.06753C60.8107 7.59297 60.5579 6.99352 60.5579 6.29417C60.5579 5.27012 60.9623 4.54579 61.7459 4.07123C62.5294 3.59667 63.6669 3.37188 65.1076 3.37188C66.9022 3.37188 68.5199 3.69658 69.9606 4.34598C70.3903 4.54579 70.7189 4.6457 70.9211 4.6457C71.3003 4.6457 71.5025 4.37095 71.5025 3.84644V2.67253C71.5025 2.32285 71.4266 2.0481 71.275 1.84829C71.1233 1.6235 70.8706 1.42368 70.5167 1.22387C70.2639 1.07401 69.9101 0.924144 69.4551 0.774283C69.0001 0.624422 68.5199 0.499537 68.0144 0.374653C67.4836 0.274746 66.9528 0.174838 66.3714 0.0999075C65.8153 0.0249769 65.234 0 64.6779 0C63.5658 0 62.5042 0.124884 61.4931 0.424607C60.4821 0.724329 59.6227 1.14894 58.8644 1.7234C58.1061 2.2729 57.4995 2.97225 57.0445 3.77151C56.5895 4.57077 56.3621 5.49491 56.3621 6.54394C56.3621 7.84274 56.7918 9.0666 57.6259 10.1656C58.46 11.2895 59.8249 12.1388 61.67 12.7132L65.3351 13.8372C66.5736 14.2368 67.433 14.6614 67.888 15.136C68.3429 15.6105 68.5704 16.185 68.5704 16.8844C68.5704 17.9084 68.1155 18.7077 67.2561 19.2572C66.3967 19.8067 65.1582 20.0814 63.5658 20.0814C62.5547 20.0814 61.5689 19.9815 60.5579 19.7817C59.5721 19.5819 58.6369 19.2821 57.7775 18.9075C57.688 18.8721 57.6016 18.8367 57.5206 18.8035C57.3731 18.7431 57.2435 18.69 57.1456 18.6577C56.994 18.6078 56.8423 18.5828 56.6907 18.5828C56.3115 18.5828 56.1093 18.8326 56.1093 19.3571V20.6309C56.1093 20.8557 56.1599 21.1055 56.261 21.3302C56.3621 21.555 56.6401 21.8048 57.0445 22.0296C57.7017 22.4043 58.6875 22.729 59.9513 23.0287ZM21.6074 18.5328C21.4304 17.9833 21.3293 17.234 21.3293 16.3099H21.2788V8.21739C21.2788 5.46994 20.5711 3.42183 19.1809 2.07308C17.7654 0.724329 15.5664 0.0499537 12.5585 0.0499537C11.1683 0.0499537 9.85397 0.199815 8.61544 0.524514C7.37691 0.824237 6.31531 1.19889 5.43064 1.64847C5.07678 1.82331 4.84929 1.99815 4.72291 2.17299C4.59653 2.34783 4.54598 2.64755 4.54598 3.04718V4.27105C4.54598 4.79556 4.72291 5.04533 5.07678 5.04533C5.17788 5.04533 5.30426 5.02035 5.4812 4.9704C5.65813 4.92044 5.96144 4.82054 6.36586 4.6457C7.25053 4.29602 8.16047 4.02128 9.09568 3.79648C10.0309 3.57169 10.9408 3.47179 11.8255 3.47179C13.7718 3.47179 15.1367 3.84644 15.9455 4.62072C16.7291 5.395 17.1335 6.71878 17.1335 8.61702V10.4403C16.1224 10.2155 15.162 10.0157 14.2267 9.89084C13.2915 9.76596 12.4069 9.69103 11.5475 9.69103C8.94403 9.69103 6.89666 10.3404 5.35482 11.6392C3.81297 12.938 3.05469 14.6614 3.05469 16.7845C3.05469 18.7826 3.68659 20.3811 4.92512 21.58C6.16365 22.7789 7.85715 23.3784 9.98035 23.3784C12.9629 23.3784 15.44 22.2294 17.4115 19.9315C17.6896 20.506 17.9423 20.9806 18.1951 21.4052C18.4479 21.8048 18.7512 22.2044 19.105 22.5791C19.3578 22.8039 19.6106 22.9288 19.8633 22.9288C20.0655 22.9288 20.293 22.8538 20.5205 22.704L22.1129 21.6549C22.4415 21.4052 22.5931 21.1554 22.5931 20.9056C22.5931 20.7308 22.5426 20.531 22.4162 20.3312C22.0623 19.6818 21.8096 19.0823 21.6074 18.5328ZM13.6707 19.6568C12.7607 19.9565 11.9013 20.1064 11.0672 20.1064C9.90452 20.1064 9.01986 19.8067 8.41323 19.1822C7.78132 18.5828 7.47801 17.7086 7.47801 16.5347C7.47801 15.2858 7.88243 14.3367 8.71654 13.6623C9.55065 12.988 10.7892 12.6633 12.4827 12.6633C13.2662 12.6633 14.0498 12.7132 14.8586 12.8131C15.6675 12.913 16.451 13.0629 17.184 13.2377V14.2868C17.184 15.136 17.0829 15.8603 16.9313 16.4598C16.7796 17.0592 16.4763 17.5837 16.0719 18.0583C15.3894 18.8076 14.5806 19.3571 13.6707 19.6568ZM31.364 22.8039C30.909 22.8039 30.6057 22.729 30.4035 22.5541C30.2013 22.4043 30.0243 22.0546 29.8727 21.58L23.9328 2.2729C23.7811 1.77336 23.7053 1.44866 23.7053 1.27382C23.7053 0.874191 23.9075 0.649399 24.3119 0.649399H26.789C27.2692 0.649399 27.5978 0.724329 27.7747 0.899167C27.977 1.04903 28.1286 1.3987 28.2803 1.87327L32.5267 18.408L36.4697 1.87327C36.5961 1.37373 36.7478 1.04903 36.95 0.899167C37.1522 0.749306 37.5061 0.649399 37.961 0.649399H39.9831C40.4634 0.649399 40.792 0.724329 40.9942 0.899167C41.1964 1.04903 41.3733 1.3987 41.4744 1.87327L45.468 18.6078L49.8408 1.87327C49.9925 1.37373 50.1694 1.04903 50.3463 0.899167C50.5485 0.749306 50.8771 0.649399 51.3321 0.649399H53.6828C54.0872 0.649399 54.3147 0.849214 54.3147 1.27382C54.3147 1.38048 54.2963 1.48715 54.2751 1.60937L54.2641 1.67345C54.2389 1.82331 54.1883 2.02313 54.0872 2.29787L47.9957 21.605C47.844 22.1045 47.6671 22.4292 47.4649 22.5791C47.2626 22.729 46.9341 22.8289 46.5044 22.8289H44.3306C43.8504 22.8289 43.5218 22.7539 43.3196 22.5791C43.1174 22.4043 42.9404 22.0796 42.8393 21.58L38.9215 5.46994L35.029 21.555C34.9026 22.0546 34.751 22.3793 34.5488 22.5541C34.3465 22.729 33.9927 22.8039 33.5377 22.8039H31.364Z" fill="white"/>
<path id="Path" d="M68.7485 35.6788C60.4278 41.7676 48.3388 44.9999 37.9443 44.9999C23.3768 44.9999 10.2509 39.6629 0.336878 30.7928C-0.447137 30.0912 0.261005 29.139 1.19676 29.6903C11.9201 35.8542 25.1471 39.5877 38.8295 39.5877C48.0606 39.5877 58.2022 37.6834 67.5345 33.7745C68.9255 33.1481 70.1142 34.6766 68.7485 35.6788Z" fill="#FF9900"/>
<path id="Path_2" d="M72.1864 31.8286C71.1285 30.479 65.1842 31.1788 62.4891 31.5037C61.6831 31.6037 61.5572 30.9039 62.2876 30.3791C67.0229 27.08 74.8059 28.0297 75.7126 29.1294C76.6194 30.2541 75.4608 37.9768 71.0277 41.6758C70.3477 42.2506 69.6928 41.9507 69.995 41.2009C71.0025 38.7266 73.2442 33.1532 72.1864 31.8286Z" fill="#FF9900"/>
</g>
</g>
</svg>
