<svg width="199" height="50" viewBox="0 0 199 50" fill="none" xmlns="http://www.w3.org/2000/svg">
<g id="logo-alteryx">
<g id="alteryx-vector-logo">
<path id="Shape" fill-rule="evenodd" clip-rule="evenodd" d="M17.4165 31.9205C17.8469 31.9205 18.2112 32.1854 18.3105 32.5828C18.4209 32.9139 18.5018 33.245 18.5827 33.5761C18.6232 33.7417 18.6637 33.9073 18.7078 34.0728C18.7409 34.5364 18.4098 34.8013 17.9463 35.0331C17.2509 35.3311 16.5225 35.5298 15.794 35.596C15.6285 35.6291 15.496 35.6291 15.3305 35.6291C14.8007 35.6622 14.2709 35.596 13.7742 35.4636C12.8471 35.2318 12.0855 34.6026 11.7213 33.7417L11.622 33.543L11.4564 33.6755C9.93328 34.9338 8.01281 35.6291 6.02613 35.6291C4.23811 35.6291 2.7812 35.1656 1.78786 34.3046C0.728289 33.3775 0.165394 31.9205 0.165394 30.1324C0.132282 26.1589 2.41697 24.2053 7.35058 24.0397L11.0591 23.9404H11.2246V18.7748C11.2246 18.7748 10.5293 18.245 8.80749 17.9801C8.04593 17.8808 7.25125 17.8477 6.48969 17.8808C5.76123 17.9139 5.03278 18.0132 4.30433 18.1457C3.87388 18.245 3.47654 18.3113 3.04609 18.3113C2.71498 18.245 2.51631 18.1126 2.35075 17.5828C2.21831 17.2516 2.11897 16.8874 2.05275 16.5563C2.05275 16.0927 2.54942 15.8609 2.71498 15.7947C3.60899 15.5629 4.503 15.3973 5.39701 15.298C5.99301 15.2318 6.55591 15.1987 7.15192 15.1987C8.47638 15.1987 9.76772 15.3642 11.026 15.6622L11.1253 15.6954C12.1186 15.9271 13.112 16.2583 14.0391 16.7218C14.0557 16.7384 14.0722 16.7467 14.0888 16.755C14.1053 16.7632 14.1219 16.7715 14.1384 16.7881L14.2378 16.8543C14.5027 17.053 14.6351 17.351 14.6682 17.649V30.9271C14.7013 31.8874 14.8669 32.2185 15.7278 32.1854C16.1914 32.1523 16.6218 32.0861 17.0854 31.9536C17.1315 31.9536 17.1776 31.9465 17.227 31.9389C17.284 31.93 17.3455 31.9205 17.4165 31.9205ZM11.2909 31.4569L11.3571 31.3907V26.4238H11.026L7.21814 26.5894C4.43677 26.755 3.60899 27.5166 3.57588 29.9669C3.6421 32.0861 4.43677 32.8808 6.65524 32.9139C8.27771 32.8808 9.86706 32.3841 11.2246 31.4901L11.2909 31.4569Z" fill="white"/>
<path id="Path" d="M73.0439 35.5629H71.2559C71.0241 35.5629 70.7592 35.4967 70.5937 35.298C70.4281 35.0994 70.3619 34.8345 70.395 34.6027V17.5497C70.3619 17.2848 70.4612 17.0199 70.6268 16.8543C70.7923 16.6888 71.0241 16.6225 71.2559 16.6557H72.8784C73.1101 16.6225 73.3419 16.6888 73.5406 16.8543C73.7061 17.0199 73.8055 17.2517 73.7724 17.4835V18.3113L74.0373 18.0464C75.0306 16.9206 76.4875 16.2583 78.0106 16.2583C78.3749 16.2583 78.7722 16.2914 79.1364 16.3908C79.4013 16.457 79.6 16.6888 79.5669 16.9868C79.5669 17.053 79.5669 17.1523 79.5669 17.2186L79.302 18.9404C79.2689 19.2053 79.0371 19.4371 78.7722 19.4371C78.6066 19.4371 78.4742 19.404 78.3086 19.404C78.0437 19.3709 77.7789 19.3378 77.514 19.3378C76.2557 19.3378 74.8319 20.1656 73.9048 21.457L73.8717 21.4901V34.6689C73.8717 34.9338 73.8055 35.1656 73.6399 35.3643C73.5075 35.4636 73.2757 35.5629 73.0439 35.5629Z" fill="white"/>
<path id="Shape_2" fill-rule="evenodd" clip-rule="evenodd" d="M49.9648 26.0596C49.9648 18.7086 53.4415 15.4967 58.0772 15.4967C62.8783 15.4967 65.3286 18.4437 65.3286 23.5099C65.3286 24.106 65.2955 24.8676 65.2623 25.596V25.7285C65.2292 26.0596 64.9643 26.2914 64.6332 26.3245H53.6071V26.6225C53.6071 30.7616 54.8653 32.7815 59.0705 32.7815C60.0307 32.7815 60.991 32.649 61.9181 32.4172C62.0174 32.3841 63.6068 32.053 63.7061 32.053C64.0703 32.0861 64.4014 32.3179 64.5008 32.649C64.6663 33.1788 64.7988 33.7417 64.8981 34.2715C64.865 34.6358 64.6001 34.9669 64.2359 35.0662C63.7392 35.298 63.2094 35.4967 62.6465 35.6623L62.1499 35.7616C61.1234 35.9603 60.097 36.0927 59.0374 36.0927C53.1104 36.0927 49.9648 32.7815 49.9648 26.0596ZM53.6402 24.0398H61.9181C61.9843 23.7417 61.9843 23.0795 61.9512 22.8477C61.9512 19.5696 60.5274 18.1788 57.9778 18.1788C55.362 18.1788 53.7396 19.8676 53.6402 24.0398Z" fill="white"/>
<path id="Path_2" d="M84.1695 43.245H84.037C83.4741 43.245 82.8781 43.2119 82.3152 43.0795C81.9841 43.0133 81.8848 42.6159 81.951 42.0199C81.9841 41.6556 82.0172 41.3245 82.0835 40.9603C82.1828 40.5298 82.3815 40.3311 82.6132 40.3311H82.845L83.2424 40.3643C83.5735 40.3974 83.9046 40.4305 84.1364 40.4305C86.2886 40.3974 87.4475 39.6027 88.2753 37.6159L89.2355 35.1987L89.3349 34.9338L89.368 34.8344L89.3349 34.702L82.7457 17.1854C82.7126 17.1192 82.7126 17.0199 82.7126 16.9537C82.7126 16.8543 82.7457 16.755 82.8119 16.6556C82.8781 16.5563 83.0106 16.5232 83.1099 16.5232H85.6264C85.9575 16.4901 86.2555 16.6888 86.3548 16.9868L90.7255 29.5364L91.0236 30.3642L91.3216 29.5364L95.8247 17.0861C95.8909 16.755 96.1889 16.5232 96.5201 16.5232H98.6723C98.8048 16.5232 98.9372 16.5563 99.0696 16.6225C99.1359 16.6888 99.2021 16.7881 99.169 16.8874C99.169 16.9868 99.1359 17.1192 99.1028 17.2186L91.6858 37.0861C90.0964 41.6225 88.0435 43.2782 84.1695 43.245Z" fill="white"/>
<path id="Path_3" d="M114.036 35.5298C113.639 35.5298 113.242 35.3311 113.043 34.9669L109.07 28.841L108.937 28.6424L108.805 28.841L104.864 34.9338C104.666 35.298 104.268 35.5298 103.871 35.4967H101.653C101.52 35.4967 101.355 35.4636 101.222 35.3642C101.123 35.2649 101.057 35.1324 101.057 34.9669C101.057 34.7682 101.123 34.6026 101.222 34.4371L106.95 25.7616L107.017 25.6622L106.95 25.5629L101.686 17.4172C101.586 17.2848 101.553 17.1523 101.553 16.9867C101.586 16.6556 101.851 16.4238 102.182 16.4238H104.169C104.533 16.3907 104.898 16.5894 105.096 16.8874L108.805 22.5165L108.937 22.7152L109.07 22.5165L112.778 16.9205C112.944 16.5894 113.308 16.3907 113.672 16.4238H115.692C116.023 16.4238 116.288 16.6556 116.321 16.9867C116.321 17.1192 116.255 17.2516 116.189 17.3841L110.924 25.5629L110.858 25.6622L110.924 25.7616L116.619 34.4371C116.718 34.6026 116.785 34.7682 116.818 34.9669C116.818 35.0993 116.751 35.2649 116.652 35.3642C116.52 35.4636 116.387 35.4967 116.222 35.4967H114.136H114.036V35.5298Z" fill="white"/>
<path id="Path_4" d="M28.2776 35.5629C27.3836 35.5629 26.4896 35.4304 25.6618 35.1324C25.0326 34.9338 24.4366 34.5695 23.9731 34.0728C22.8473 32.8145 22.748 31.2914 22.7148 29.2715V9.8013C22.7148 9.66885 22.748 9.56951 22.8473 9.47017C23.5426 8.70859 24.4366 8.14567 25.3969 7.81455C25.4631 7.78143 25.4962 7.78143 25.5624 7.78143C25.728 7.78143 25.9267 7.84766 26.026 7.98011C26.1915 8.17878 26.2909 8.41057 26.2578 8.67547V29.3708C26.1915 30.2649 26.4564 31.1258 26.9862 31.8212C27.4829 32.3179 28.1782 32.5496 28.8736 32.4834C29.1054 32.4834 29.3371 32.4503 29.5689 32.4172C30.0987 32.3179 30.6285 32.2185 31.1583 32.053C31.2576 32.0198 31.3569 31.9867 31.4563 31.9867C31.7874 31.9867 32.0854 32.2185 32.1847 32.5496C32.3172 33.0132 32.4496 33.5099 32.5158 34.0066C32.4827 34.4039 32.2178 34.702 31.8536 34.8013C30.7278 35.3311 29.5027 35.5629 28.2776 35.5629Z" fill="white"/>
<path id="Path_5" d="M46.4225 32.6159C46.3232 32.2848 46.0252 32.053 45.6941 32.053C45.5947 32.053 45.4954 32.0861 45.3961 32.1192C44.7007 32.351 43.9392 32.5166 43.2107 32.5497H43.1114C42.416 32.6159 41.7207 32.351 41.1909 31.8543C40.7936 31.4238 40.5287 30.7285 40.4956 29.4371V29.3709L40.5949 19.1391H44.7669C44.9656 19.1391 45.1643 19.106 45.363 18.9735C45.5285 18.8411 45.6278 18.6093 45.5947 18.3775V17.0861C45.6278 16.8543 45.5285 16.6225 45.363 16.4901C45.1974 16.3907 44.9987 16.3245 44.8001 16.3576H40.5618V10C40.5949 9.7351 40.4956 9.50331 40.33 9.30463C40.1976 9.17218 40.032 9.10596 39.8333 9.10596C39.7671 9.10596 39.7009 9.10596 39.6678 9.13907C39.1049 9.33775 38.542 9.63576 38.0453 9.96688C37.7804 10.1656 37.5155 10.3973 37.2838 10.6291C37.2175 10.7285 37.1844 10.8278 37.1844 10.9271L37.0851 16.2914H34.9328C34.7011 16.2914 34.5024 16.3576 34.3368 16.5232C34.2044 16.6887 34.105 16.9205 34.1382 17.1523V18.3444C34.105 18.5762 34.1713 18.8411 34.3368 19.0397C34.5355 19.2053 34.7673 19.2715 35.0322 19.2384H37.052L36.8533 28.8742V29.3046C36.8533 31.3576 36.9526 32.8808 38.1115 34.1391C38.9724 35.0662 40.5618 35.6291 42.4491 35.6291C43.6743 35.6291 44.8994 35.3642 46.0583 34.9007C46.3894 34.7682 46.7536 34.5033 46.7205 34.106C46.6874 33.543 46.5881 33.0795 46.4225 32.6159Z" fill="white"/>
<path id="Path_6" d="M128.639 49.7351H127.877V0.132446H128.639V49.7351Z" fill="white"/>
<path id="Path_7" d="M146.419 16.4901H143.14V25.4305H141.783V16.4901H138.505V15.3311H146.419V16.4901Z" fill="white"/>
<path id="Path_8" d="M148.737 19.2716C149.035 18.9735 149.366 18.7086 149.763 18.51C150.161 18.3113 150.591 18.212 151.055 18.212C151.419 18.212 151.75 18.2782 152.081 18.4106C152.379 18.5431 152.644 18.7418 152.843 18.9735C153.041 19.2053 153.207 19.5033 153.306 19.8014C153.406 20.1656 153.472 20.5298 153.472 20.8941V25.4305H152.214V20.8941C152.247 20.4305 152.114 20 151.849 19.6358C151.551 19.3378 151.154 19.1722 150.724 19.1722C150.359 19.1722 149.995 19.2716 149.697 19.4371C149.366 19.6358 149.035 19.8676 148.77 20.1656V25.3974H147.512V15.0331H148.77V19.2716H148.737Z" fill="white"/>
<path id="Shape_3" fill-rule="evenodd" clip-rule="evenodd" d="M160.558 24.9338C160.789 24.8013 160.955 24.6358 161.121 24.4371L160.889 24.0397C160.856 23.9404 160.756 23.9073 160.657 23.9073C160.525 23.9073 160.425 23.9404 160.359 24.0066C160.259 24.0819 160.139 24.1381 160.03 24.1897C159.995 24.2063 159.961 24.2223 159.929 24.2384C159.73 24.3377 159.531 24.404 159.333 24.4702C159.068 24.5364 158.77 24.5695 158.505 24.5695C158.174 24.5695 157.876 24.5033 157.578 24.404C157.313 24.3046 157.081 24.1391 156.882 23.9073C156.684 23.6755 156.518 23.3775 156.419 23.0795C156.286 22.6821 156.22 22.2848 156.22 21.8874H160.988C161.087 21.8874 161.154 21.8543 161.22 21.7881C161.286 21.6556 161.286 21.5232 161.286 21.3907C161.286 20.9271 161.22 20.4636 161.054 20.0331C160.922 19.6689 160.69 19.3377 160.425 19.0397C160.16 18.7417 159.829 18.543 159.465 18.4106C159.068 18.2781 158.67 18.2119 158.273 18.2119C157.809 18.2119 157.313 18.2781 156.882 18.4768C156.485 18.6424 156.121 18.8742 155.823 19.2053C155.525 19.5364 155.293 19.9338 155.16 20.3311C154.995 20.7616 154.929 21.2583 154.929 21.7218C154.929 22.2516 155.028 22.8146 155.194 23.3444C155.326 23.7748 155.558 24.2053 155.889 24.5364C156.187 24.8675 156.551 25.0993 156.949 25.2649C157.379 25.4636 157.843 25.5298 158.306 25.5298C158.571 25.5298 158.836 25.4967 159.101 25.4636C159.366 25.4305 159.597 25.3642 159.862 25.2649C160.094 25.1987 160.326 25.0662 160.558 24.9338L160.558 24.9338ZM159.995 20.298C160.094 20.5629 160.127 20.8278 160.127 21.0927H156.22C156.286 20.5629 156.518 20.0331 156.882 19.6358C157.478 19.106 158.306 18.9404 159.068 19.2384C159.266 19.3377 159.465 19.5033 159.631 19.6689C159.796 19.8675 159.929 20.0662 159.995 20.298Z" fill="white"/>
<path id="Path_9" d="M173.074 16.4901H169.796V25.4305H168.438V16.4901H165.16V15.3311H173.074V16.4901Z" fill="white"/>
<path id="Path_10" d="M175.424 19.2716C175.722 18.9735 176.053 18.7086 176.451 18.51C176.848 18.3113 177.278 18.212 177.742 18.212C178.106 18.212 178.437 18.2782 178.769 18.4106C179.067 18.5431 179.298 18.7418 179.497 18.9735C179.696 19.2053 179.861 19.5033 179.961 19.8014C180.06 20.1656 180.126 20.5298 180.126 20.8941V25.4305H178.868V20.8941C178.901 20.4305 178.769 20 178.504 19.6358C178.206 19.3378 177.808 19.1722 177.378 19.1722C177.014 19.1722 176.649 19.2716 176.351 19.4371C176.02 19.6358 175.722 19.8676 175.457 20.1656V25.3974H174.166V15.0331H175.424V19.2716Z" fill="white"/>
<path id="Path_11" d="M183.206 19.7351C183.404 19.3046 183.669 18.9073 184.033 18.5762C184.365 18.3113 184.795 18.1457 185.225 18.1457C185.358 18.1457 185.49 18.1788 185.656 18.2119C185.788 18.245 185.921 18.2781 186.02 18.3775L185.921 19.3046C185.921 19.404 185.821 19.4702 185.722 19.4702C185.623 19.4702 185.523 19.4371 185.424 19.4371C185.292 19.404 185.159 19.404 184.994 19.404C184.795 19.404 184.596 19.4371 184.398 19.5033C184.232 19.5695 184.067 19.6689 183.934 19.8013C183.802 19.9338 183.669 20.0993 183.57 20.2649C183.437 20.4636 183.338 20.6954 183.272 20.9271V25.4305H182.014V18.3113H182.742C182.841 18.3113 182.941 18.3113 183.007 18.3775C183.073 18.4437 183.106 18.543 183.106 18.6424L183.206 19.7351Z" fill="white"/>
<path id="Shape_4" fill-rule="evenodd" clip-rule="evenodd" d="M188.669 16.3908C188.702 16.2914 188.735 16.1921 188.735 16.0596C188.735 15.9603 188.702 15.8278 188.669 15.7285C188.636 15.5961 188.57 15.5298 188.47 15.4305C188.371 15.3312 188.272 15.2649 188.172 15.2318C188.073 15.1987 187.974 15.1656 187.841 15.1656C187.742 15.1656 187.61 15.1987 187.51 15.2318C187.411 15.298 187.312 15.3643 187.245 15.4305C187.146 15.5298 187.08 15.6292 187.047 15.7285C187.014 15.8278 186.98 15.9272 186.98 16.0596C186.98 16.159 187.014 16.2914 187.047 16.3908C187.113 16.4901 187.179 16.5894 187.245 16.6557C187.312 16.755 187.411 16.8212 187.51 16.8543C187.61 16.8874 187.709 16.9206 187.841 16.9206C187.941 16.9206 188.073 16.8874 188.172 16.8543C188.305 16.7881 188.404 16.7219 188.47 16.6557C188.57 16.5894 188.636 16.4901 188.669 16.3908ZM187.212 18.3113V25.4305H188.47V18.3113H187.212Z" fill="white"/>
<path id="Path_12" d="M191.815 25.4305H190.557V15.0662H191.815V25.4305Z" fill="white"/>
<path id="Path_13" d="M195.126 25.4305H193.868V15.0662H195.126V25.4305Z" fill="white"/>
<path id="Shape_5" fill-rule="evenodd" clip-rule="evenodd" d="M143.737 32.6159C143.273 32.4172 142.809 32.351 142.313 32.351C141.816 32.351 141.319 32.4503 140.856 32.649C140.459 32.8145 140.094 33.0463 139.796 33.3774C139.498 33.7086 139.267 34.1059 139.134 34.5364C138.803 35.5298 138.803 36.5894 139.134 37.5827C139.267 38.0132 139.498 38.4106 139.796 38.7417C140.094 39.0397 140.459 39.3046 140.856 39.4702C141.319 39.6688 141.783 39.7351 142.28 39.7351C142.776 39.7351 143.24 39.6357 143.703 39.4702C144.134 39.3046 144.498 39.0397 144.796 38.7086C145.094 38.3774 145.326 37.9801 145.458 37.5496C145.756 36.5563 145.756 35.4966 145.458 34.5033C145.326 34.0728 145.094 33.6755 144.796 33.3443C144.498 33.0463 144.134 32.7814 143.737 32.6159ZM143.869 38.0463C143.472 38.5099 142.876 38.7748 142.28 38.7417C141.684 38.7748 141.088 38.5099 140.69 38.0463C140.293 37.4503 140.127 36.7549 140.161 36.0596C140.161 35.6953 140.194 35.298 140.293 34.9337C140.359 34.6357 140.492 34.3708 140.69 34.1059C140.856 33.8741 141.088 33.7086 141.353 33.5761C141.651 33.4437 141.949 33.3774 142.28 33.3774C142.909 33.3112 143.505 33.5761 143.869 34.0728C144.266 34.6688 144.432 35.3642 144.399 36.0596C144.432 36.7549 144.233 37.4503 143.869 38.0463Z" fill="white"/>
<path id="Path_14" d="M147.578 39.6026V33.543L146.783 33.4437C146.684 33.4106 146.618 33.3775 146.551 33.3444C146.485 33.2781 146.452 33.2119 146.452 33.1457V32.6159H147.578V31.9205C147.578 31.5563 147.644 31.192 147.743 30.8278C147.843 30.5298 148.041 30.2649 148.273 30.0331C148.505 29.8013 148.737 29.6358 149.035 29.5364C149.366 29.404 149.697 29.3708 150.061 29.3708C150.359 29.3708 150.657 29.404 150.955 29.5033L150.922 30.1324C150.922 30.2318 150.856 30.3311 150.724 30.3311H150.26C150.061 30.3311 149.863 30.3642 149.664 30.4305C149.498 30.4967 149.333 30.5629 149.2 30.6954C149.068 30.8278 148.969 30.9934 148.902 31.192C148.836 31.4569 148.803 31.6887 148.803 31.9536V32.6159H150.856V33.5099H148.836V39.6026H147.578Z" fill="white"/>
<path id="Path_15" d="M160.856 31.0927C160.822 31.1589 160.789 31.2251 160.723 31.2582C160.657 31.2914 160.624 31.3245 160.558 31.3245C160.458 31.3245 160.359 31.2582 160.293 31.192C160.193 31.1258 160.061 31.0265 159.862 30.9271C159.664 30.8278 159.465 30.7284 159.266 30.6622C159.001 30.5629 158.703 30.5298 158.438 30.5298C158.174 30.5298 157.876 30.5629 157.644 30.6622C157.412 30.7284 157.213 30.8609 157.048 30.9933C156.882 31.1258 156.783 31.2914 156.684 31.49C156.617 31.6887 156.551 31.8874 156.551 32.1192C156.551 32.3841 156.617 32.6159 156.75 32.8145C156.882 33.0132 157.081 33.1788 157.313 33.2781C157.544 33.4106 157.809 33.543 158.074 33.6092L158.968 33.9072C159.266 34.0066 159.564 34.139 159.862 34.2384C160.127 34.3708 160.392 34.5364 160.624 34.7351C160.856 34.9337 161.054 35.1986 161.187 35.4635C161.319 35.7947 161.418 36.1589 161.385 36.5231C161.385 36.9536 161.319 37.3841 161.154 37.7814C161.021 38.1457 160.789 38.5099 160.491 38.7748C160.193 39.0728 159.829 39.2715 159.465 39.437C159.001 39.6026 158.538 39.7019 158.041 39.6688C157.412 39.6688 156.816 39.5695 156.253 39.3046C155.723 39.0728 155.26 38.7417 154.896 38.3443L155.293 37.6821C155.326 37.6159 155.392 37.5827 155.425 37.5496C155.492 37.5165 155.558 37.4834 155.591 37.4834C155.657 37.4834 155.723 37.5165 155.79 37.5496C155.856 37.6159 155.955 37.649 156.054 37.7483L156.386 37.9801C156.518 38.0794 156.65 38.1457 156.816 38.2119C156.982 38.2781 157.18 38.3443 157.379 38.4106C157.611 38.4768 157.842 38.4768 158.074 38.4768C158.372 38.4768 158.67 38.4437 158.935 38.3443C159.167 38.2781 159.399 38.1457 159.564 37.9801C159.73 37.8145 159.895 37.6159 159.995 37.3841C160.094 37.1523 160.127 36.8874 160.127 36.6225C160.127 36.3576 160.061 36.0927 159.928 35.8609C159.796 35.6622 159.597 35.4966 159.399 35.3642C159.167 35.2317 158.902 35.0993 158.637 35.0331L157.743 34.7682C157.445 34.6688 157.147 34.5695 156.849 34.437C156.551 34.3046 156.319 34.139 156.088 33.9404C155.856 33.7417 155.657 33.4768 155.558 33.1788C155.293 32.4834 155.293 31.7218 155.558 31.0265C155.69 30.6953 155.889 30.3973 156.154 30.1324C156.452 29.8675 156.783 29.6688 157.147 29.5033C157.578 29.3377 158.041 29.2715 158.472 29.2715C159.001 29.2715 159.531 29.3708 160.028 29.5364C160.491 29.7019 160.889 29.9668 161.253 30.298L160.856 31.0927Z" fill="white"/>
<path id="Shape_6" fill-rule="evenodd" clip-rule="evenodd" d="M167.379 32.6159C166.948 32.4172 166.485 32.351 165.988 32.351C165.525 32.351 165.028 32.4503 164.564 32.649C164.167 32.8145 163.803 33.0463 163.505 33.3774C163.207 33.7086 162.975 34.1059 162.843 34.5364C162.545 35.5298 162.545 36.5894 162.843 37.5827C162.975 38.0132 163.207 38.4106 163.505 38.7417C163.803 39.0397 164.167 39.3046 164.564 39.4702C165.028 39.6688 165.492 39.7351 165.988 39.7351C166.452 39.7351 166.915 39.6357 167.379 39.4702C167.776 39.3046 168.14 39.0397 168.438 38.7086C168.736 38.3774 168.968 37.9801 169.101 37.5496C169.399 36.5563 169.399 35.4966 169.101 34.5033C168.968 34.0728 168.736 33.6755 168.438 33.3443C168.14 33.0463 167.776 32.7814 167.379 32.6159ZM167.578 38.0463C167.18 38.5099 166.584 38.7748 165.988 38.7417C165.392 38.7748 164.796 38.5099 164.399 38.0463C164.002 37.4503 163.836 36.7549 163.869 36.0596C163.869 35.6953 163.902 35.298 164.002 34.9337C164.068 34.6357 164.2 34.3708 164.399 34.1059C164.564 33.8741 164.796 33.7086 165.061 33.5761C165.359 33.4437 165.657 33.3774 165.988 33.3774C166.617 33.3112 167.213 33.5761 167.578 34.0728C167.975 34.6688 168.14 35.3642 168.107 36.0596C168.14 36.7549 167.942 37.4503 167.578 38.0463Z" fill="white"/>
<path id="Path_16" d="M172.279 39.6026H171.021V29.2384H172.279V39.6026Z" fill="white"/>
<path id="Path_17" d="M180.391 32.4834L177.477 39.6026H176.351L173.438 32.4834H174.464C174.563 32.4834 174.63 32.5165 174.729 32.5496C174.795 32.5827 174.828 32.649 174.861 32.7483L176.682 37.3509C176.749 37.5165 176.782 37.6821 176.815 37.8476C176.848 38.0132 176.881 38.1788 176.947 38.3443C176.98 38.1788 177.014 38.0132 177.08 37.8476C177.113 37.6821 177.179 37.5165 177.245 37.3509L179.066 32.7483C179.1 32.6821 179.133 32.6158 179.199 32.5496C179.265 32.4834 179.331 32.4834 179.431 32.4834H180.391Z" fill="white"/>
<path id="Shape_7" fill-rule="evenodd" clip-rule="evenodd" d="M183.073 30.596C183.107 30.4967 183.14 30.3973 183.14 30.2649C183.14 30.1324 183.107 30 183.073 29.9338C183.04 29.8013 182.974 29.7351 182.875 29.6358C182.775 29.5364 182.676 29.4702 182.577 29.4371C182.477 29.404 182.345 29.3708 182.246 29.3708C182.146 29.3708 182.014 29.404 181.915 29.4371C181.815 29.5033 181.716 29.5695 181.65 29.6358C181.55 29.7351 181.484 29.8344 181.451 29.9338C181.418 30.0331 181.385 30.1324 181.385 30.2649C181.385 30.3642 181.418 30.4967 181.451 30.596C181.517 30.6954 181.583 30.7947 181.65 30.8609C181.716 30.9603 181.815 31.0265 181.915 31.0596C182.014 31.0927 182.113 31.1258 182.246 31.1258C182.477 31.1258 182.709 31.0265 182.875 30.8609C182.974 30.7947 183.04 30.6954 183.073 30.596ZM181.617 32.4834V39.6026H182.875V32.4834H181.617Z" fill="white"/>
<path id="Path_18" d="M186.12 33.51C186.285 33.3444 186.451 33.1789 186.617 33.0464C186.782 32.914 186.981 32.7815 187.179 32.6822C187.378 32.5828 187.577 32.5166 187.809 32.4504C188.04 32.3842 188.272 32.3842 188.504 32.3842C188.868 32.3842 189.199 32.4504 189.53 32.5828C189.828 32.7153 190.06 32.8808 190.292 33.1457C190.491 33.3775 190.656 33.6755 190.756 33.9736C190.855 34.3378 190.921 34.702 190.921 35.0663V39.6358H189.663V35.0994C189.696 34.6358 189.564 34.2053 189.299 33.8411C189.001 33.5431 188.603 33.3775 188.173 33.3775C187.809 33.3775 187.444 33.4769 187.146 33.6424C186.815 33.8411 186.517 34.0729 186.252 34.3709V39.6358H184.994V32.5166H185.756C185.921 32.5166 186.054 32.6159 186.087 32.7815L186.12 33.51Z" fill="white"/>
<path id="Shape_8" fill-rule="evenodd" clip-rule="evenodd" d="M198.801 33.212V32.7484L196.848 32.7153C196.616 32.5828 196.384 32.4835 196.119 32.4173C195.49 32.2848 194.795 32.2848 194.166 32.4835C193.868 32.5828 193.57 32.7484 193.338 32.9471C193.106 33.1457 192.907 33.4106 192.775 33.6755C192.642 33.9736 192.576 34.3047 192.576 34.6358C192.576 35.0332 192.676 35.4305 192.874 35.7616C193.073 36.0928 193.371 36.3577 193.702 36.5563C193.57 36.6226 193.437 36.7219 193.305 36.8212L193.305 36.8212C193.172 36.8875 193.073 37.0199 193.007 37.1192C192.94 37.2186 192.874 37.3179 192.841 37.4504C192.808 37.5497 192.775 37.6822 192.775 37.7815C192.775 38.0133 192.841 38.212 192.974 38.4106C193.106 38.5762 193.272 38.7087 193.47 38.7749C193.139 38.9073 192.841 39.106 192.576 39.3709C192.344 39.6027 192.245 39.9338 192.245 40.2649C192.245 40.5298 192.278 40.7616 192.411 40.9934C192.576 41.2252 192.775 41.4239 193.007 41.5894C193.305 41.7881 193.636 41.9206 193.967 42.0199C194.397 42.1524 194.861 42.1855 195.324 42.1855C195.788 42.1855 196.252 42.1192 196.715 41.9868C197.113 41.8875 197.444 41.6888 197.775 41.457C198.04 41.2583 198.271 40.9934 198.437 40.6954C198.603 40.4305 198.669 40.0994 198.669 39.8014C198.702 39.5365 198.603 39.2385 198.47 39.0067C198.338 38.7749 198.172 38.6093 197.94 38.51C197.709 38.3775 197.444 38.2782 197.179 38.2451L196.285 38.1457C196.136 38.1457 195.987 38.1375 195.838 38.1292C195.689 38.1209 195.54 38.1126 195.391 38.1126C195.153 38.1126 194.941 38.0859 194.708 38.0564C194.682 38.0531 194.656 38.0497 194.629 38.0464C194.464 38.0133 194.265 37.9471 194.099 37.8477C193.967 37.7484 193.901 37.6159 193.901 37.4504C193.901 37.3179 193.967 37.2186 194.033 37.1192C194.099 36.9868 194.232 36.8875 194.364 36.8212C194.662 36.9206 194.96 36.9537 195.291 36.9537C195.656 36.9537 196.02 36.8875 196.351 36.7881C196.649 36.6888 196.947 36.5232 197.179 36.3245C197.411 36.1259 197.609 35.861 197.742 35.5961C197.874 35.2981 197.94 34.9669 197.94 34.6358C197.94 34.2716 197.874 33.9404 197.709 33.6093L198.503 33.51C198.702 33.4769 198.801 33.3775 198.801 33.212ZM195.291 36.1259C195.523 36.1259 195.755 36.0928 195.954 36.0265C196.119 35.9603 196.285 35.861 196.45 35.7285C196.583 35.5961 196.682 35.4636 196.748 35.2649C196.815 35.0663 196.848 34.8676 196.848 34.6689C196.881 34.2716 196.715 33.9073 196.45 33.6424C195.755 33.1126 194.828 33.1126 194.132 33.6424C193.868 33.9073 193.702 34.3047 193.735 34.6689C193.735 34.8676 193.768 35.0663 193.834 35.2649C193.901 35.4305 194 35.5961 194.132 35.7285C194.265 35.861 194.43 35.9603 194.629 36.0265C194.828 36.0928 195.06 36.1259 195.291 36.1259ZM197.543 40C197.543 39.8345 197.51 39.702 197.411 39.5696C197.311 39.4371 197.179 39.3709 197.013 39.3047C196.815 39.2385 196.616 39.2053 196.417 39.1722C196.301 39.1557 196.185 39.1474 196.069 39.1391C195.954 39.1308 195.838 39.1226 195.722 39.106L194.96 39.0729C194.695 39.0729 194.464 39.0398 194.232 39.0067C194 39.106 193.768 39.2716 193.603 39.4702C193.437 39.6358 193.338 39.8676 193.338 40.1325C193.338 40.2981 193.371 40.4305 193.47 40.5961C193.57 40.7616 193.702 40.861 193.834 40.9603C194.033 41.0596 194.232 41.159 194.464 41.1921C195.06 41.3245 195.689 41.3245 196.285 41.1921C196.516 41.1259 196.748 41.0596 196.947 40.9272C197.113 40.8279 197.245 40.6954 197.377 40.4967C197.477 40.3643 197.543 40.1656 197.543 40Z" fill="white"/>
</g>
</g>
</svg>
