<svg width="48" height="48" viewBox="0 0 48 48" fill="none" xmlns="http://www.w3.org/2000/svg">
<path fill-rule="evenodd" clip-rule="evenodd" d="M22.8 6H24.8C26.3464 6 27.6 7.2536 27.6 8.8V38.8C27.6 40.3464 26.3464 41.6 24.8 41.6H22.8C21.2536 41.6 20 40.3464 20 38.8V8.8C20 7.2536 21.2536 6 22.8 6ZM22.8 7.6C22.1373 7.6 21.6 8.13726 21.6 8.8V38.8C21.6 39.4627 22.1373 40 22.8 40H24.8C25.4627 40 26 39.4627 26 38.8V8.8C26 8.13726 25.4627 7.6 24.8 7.6H22.8ZM8.8 27.6C10.6243 27.6 12.1483 26.3145 12.5157 24.5999L18.8 24.599V23H12.5156C12.1483 21.2855 10.6242 20 8.8 20C6.70132 20 5 21.7013 5 23.8C5 25.8987 6.70132 27.6 8.8 27.6ZM6.6 23.8C6.6 25.015 7.58497 26 8.8 26C10.015 26 11 25.015 11 23.8C11 22.585 10.015 21.6 8.8 21.6C7.58497 21.6 6.6 22.585 6.6 23.8ZM38.8 27.6C40.8987 27.6 42.6 25.8987 42.6 23.8C42.6 21.7013 40.8987 20 38.8 20C36.9757 20 35.4517 21.2855 35.0844 23H28.8V24.599L35.0843 24.5999C35.4517 26.3145 36.9757 27.6 38.8 27.6ZM38.8 26C37.585 26 36.6 25.015 36.6 23.8C36.6 22.585 37.585 21.6 38.8 21.6C40.015 21.6 41 22.585 41 23.8C41 25.015 40.015 26 38.8 26Z" fill="white"/>
<path opacity="0.6" d="M36.3628 10.6038L37.4325 11.7937L28.7998 19.5528V17.4018L36.3628 10.6038Z" fill="#33C8C3"/>
<path opacity="0.6" d="M28.7998 27.921L37.4325 35.6806L36.3628 36.8706L28.7998 30.072V27.921Z" fill="#33C8C3"/>
<path opacity="0.6" d="M11.3352 10.6038L18.7996 17.3128V19.4648L10.2656 11.7937L11.3352 10.6038Z" fill="#33C8C3"/>
<path opacity="0.6" d="M18.7996 28.009V30.161L11.3352 36.8706L10.2656 35.6807L18.7996 28.009Z" fill="#33C8C3"/>
<path fill-rule="evenodd" clip-rule="evenodd" d="M42.6 37.8C42.6 39.8987 40.8987 41.6 38.8 41.6C36.7013 41.6 35 39.8987 35 37.8C35 35.7013 36.7013 34 38.8 34C40.8987 34 42.6 35.7013 42.6 37.8ZM36.6 37.8C36.6 39.015 37.585 40 38.8 40C40.015 40 41 39.015 41 37.8C41 36.585 40.015 35.6 38.8 35.6C37.585 35.6 36.6 36.585 36.6 37.8Z" fill="#33C8C3"/>
<path fill-rule="evenodd" clip-rule="evenodd" d="M12.6 37.8C12.6 39.8987 10.8987 41.6 8.8 41.6C6.70132 41.6 5 39.8987 5 37.8C5 35.7013 6.70132 34 8.8 34C10.8987 34 12.6 35.7013 12.6 37.8ZM6.6 37.8C6.6 39.015 7.58497 40 8.8 40C10.015 40 11 39.015 11 37.8C11 36.585 10.015 35.6 8.8 35.6C7.58497 35.6 6.6 36.585 6.6 37.8Z" fill="#33C8C3"/>
<path fill-rule="evenodd" clip-rule="evenodd" d="M42.6 9.8C42.6 11.8987 40.8987 13.6 38.8 13.6C36.7013 13.6 35 11.8987 35 9.8C35 7.70132 36.7013 6 38.8 6C40.8987 6 42.6 7.70132 42.6 9.8ZM36.6 9.8C36.6 11.015 37.585 12 38.8 12C40.015 12 41 11.015 41 9.8C41 8.58497 40.015 7.6 38.8 7.6C37.585 7.6 36.6 8.58497 36.6 9.8Z" fill="#33C8C3"/>
<path fill-rule="evenodd" clip-rule="evenodd" d="M12.6 9.8C12.6 11.8987 10.8987 13.6 8.8 13.6C6.70132 13.6 5 11.8987 5 9.8C5 7.70132 6.70132 6 8.8 6C10.8987 6 12.6 7.70132 12.6 9.8ZM6.6 9.8C6.6 11.015 7.58497 12 8.8 12C10.015 12 11 11.015 11 9.8C11 8.58497 10.015 7.6 8.8 7.6C7.58497 7.6 6.6 8.58497 6.6 9.8Z" fill="#33C8C3"/>
</svg>
