<svg width="275" height="108" viewBox="0 0 275 108" fill="none" xmlns="http://www.w3.org/2000/svg">
<g id="logo/ power-bi-vector-logo copy">
<g id="logo/ power-bi-vector-logo">
<path id="Path" d="M74.2904 57.2949C74.2904 53.0847 74.2904 48.9203 74.2904 44.7102C74.2904 43.2457 73.6514 42.3763 72.2821 41.9644C59.9128 38.2118 47.5892 34.4135 35.2199 30.7068C33.3029 30.1118 31.7967 31.2559 31.7967 33.2695C31.7967 38.8068 31.7967 44.2983 31.7967 49.8356C31.7967 50.2932 31.8423 50.8881 31.6141 51.2542C31.3402 51.6661 30.7925 52.0779 30.3361 52.0779C29.9253 52.0779 29.3776 51.6203 29.0581 51.2542C28.8299 50.9796 28.8299 50.522 28.8299 50.1102C28.8299 44.6186 28.7842 39.1729 28.8299 33.6813C28.8755 29.2881 32.1618 26.9085 36.361 28.1441C38.1411 28.6474 39.9211 29.2424 41.7012 29.7915C51.9253 32.9034 62.1494 36.0152 72.3734 39.1271C75.751 40.1339 77.1203 41.7813 77.1203 45.3508C77.166 53.4508 77.166 61.5051 77.1203 69.6051C77.1203 73.3576 74.7012 76.0118 71.4149 75.6C69.5435 75.3712 67.7178 74.5932 65.9377 73.9983C65.2075 73.7695 65.0249 73.0373 65.2531 72.3051C65.527 71.5271 66.166 71.2983 66.8962 71.4813C68.0373 71.8017 69.1784 72.122 70.3195 72.5339C72.7386 73.3576 74.2448 72.3051 74.2448 69.7881V57.2949H74.2904Z" fill="#231815"/>
<path id="Shape" fill-rule="evenodd" clip-rule="evenodd" d="M229.294 53.5425C232.9 54.4577 234.68 56.517 234.817 59.8119C234.954 62.7865 232.763 65.7611 229.613 66.7679C228.472 67.134 227.194 67.3628 226.008 67.4086C223.223 67.5001 220.439 67.4543 217.655 67.4086C217.57 67.4086 217.466 67.373 217.357 67.3351C217.29 67.3122 217.222 67.2885 217.153 67.2713C217.107 66.8594 217.107 66.4475 217.107 66.0814C217.107 64.138 217.11 62.1916 217.113 60.2438C217.121 54.3948 217.13 48.5329 217.062 42.6967C217.062 41.5526 217.381 41.278 218.476 41.3238C219.735 41.3787 220.995 41.3897 222.251 41.4007C224.137 41.4172 226.016 41.4336 227.879 41.5984C231.165 41.9187 233.356 44.1153 233.63 46.9069C233.767 49.195 232.854 51.9408 229.294 53.5425ZM221.535 55.7391C221.535 58.3475 221.535 60.7272 221.58 63.1069C221.58 63.3357 222.037 63.7933 222.265 63.7933C222.473 63.7933 222.682 63.7942 222.891 63.7952H222.892C224.153 63.8008 225.433 63.8065 226.647 63.6103C228.655 63.3357 229.887 61.7797 229.887 59.8119C229.887 57.7984 228.837 56.4713 226.692 56.1509C225.315 55.9143 223.871 55.8476 222.3 55.7751H222.3C222.048 55.7635 221.793 55.7517 221.535 55.7391ZM221.529 49.2865C221.532 49.0577 221.535 48.8289 221.535 48.6001C221.535 48.4628 221.535 48.3713 221.58 48.1882C221.622 47.8644 221.63 47.493 221.637 47.1219C221.654 46.2866 221.671 45.453 222.082 45.1679C223.36 44.2984 227.286 45.2136 228.153 46.2204C229.705 48.0052 228.609 51.2543 226.145 51.8492C225.026 52.0895 223.873 52.0845 222.716 52.0795C222.55 52.0788 222.385 52.078 222.219 52.078C221.991 52.078 221.58 51.6204 221.58 51.3458C221.512 50.6594 221.52 49.973 221.529 49.2865Z" fill="#231815"/>
<path id="Path_2" d="M156.905 54.1372C155.672 58.3474 154.531 62.2372 153.436 66.1728C153.162 67.1339 152.797 67.5 151.747 67.5C148.598 67.5 148.552 67.5915 147.685 64.5711C146.224 59.6745 144.809 54.7779 143.394 49.8813C143.303 49.6067 143.257 49.2864 143.166 48.8288C144.581 48.8288 145.859 48.783 147.183 48.8745C147.456 48.8745 147.822 49.4237 147.913 49.744C148.917 53.5423 149.83 57.2949 150.788 61.0932C150.88 61.505 151.017 61.9169 151.336 62.3745C152.021 60.0406 152.66 57.661 153.344 55.3271C153.892 53.405 154.394 51.483 155.033 49.561C155.125 49.2406 155.627 48.8288 155.946 48.8288C159.278 48.6 159.278 48.6 160.1 51.8033C161.012 55.4644 161.925 59.1254 162.838 62.9694C163.934 58.5305 165.029 54.2745 166.033 49.9728C166.261 49.0576 166.627 48.7372 167.539 48.783C168.498 48.8745 169.411 48.783 170.552 48.783C170.05 50.6135 169.548 52.2152 169.046 53.8627C167.813 57.9813 166.581 62.1 165.44 66.2644C165.212 67.0881 164.892 67.5 163.934 67.4542C160.465 67.4084 160.465 67.4542 159.598 64.1593C158.73 60.9559 157.863 57.7067 156.905 54.1372Z" fill="#231815"/>
<path id="Shape_2" fill-rule="evenodd" clip-rule="evenodd" d="M103.6 67.0208C103.613 67.1522 103.626 67.2956 103.639 67.4542C104.045 67.4542 104.435 67.4435 104.815 67.4331C105.544 67.413 106.235 67.394 106.925 67.4542C107.884 67.5457 108.158 67.2254 108.158 66.2644C108.135 65.0974 108.135 63.9419 108.135 62.7864C108.135 61.6309 108.135 60.4754 108.112 59.3085C108.112 58.439 108.386 58.1644 109.253 58.1186C109.454 58.1135 109.655 58.1089 109.857 58.1043C111.444 58.0682 113.054 58.0316 114.593 57.7068C118.519 56.883 121.211 53.2678 121.075 49.1949C120.983 45.0305 118.427 42.1017 114.091 41.6441C112.25 41.4483 110.393 41.4405 108.539 41.4328C107.358 41.4278 106.18 41.4229 105.008 41.3695C103.867 41.3237 103.502 41.6898 103.502 42.8339C103.548 50.6135 103.548 58.439 103.548 66.2186C103.548 66.4464 103.571 66.6973 103.6 67.0208ZM109.646 54.3632C109.16 54.3906 108.664 54.4185 108.158 54.4576C108.158 51.3915 108.158 48.6457 108.203 45.9C108.203 45.6712 108.614 45.2593 108.797 45.2593C109.088 45.2593 109.381 45.2557 109.675 45.252C110.854 45.2374 112.046 45.2226 113.178 45.4424C115.278 45.8542 116.236 47.2729 116.236 49.5152C116.236 51.8491 115.187 53.5881 113.133 54C112.023 54.2291 110.866 54.2944 109.646 54.3632Z" fill="#231815"/>
<path id="Path_3" d="M55.2109 62.7865C55.2109 58.1645 55.2109 53.5882 55.2109 48.9662C55.2109 47.4103 56.0325 46.1747 57.3562 45.717C58.6798 45.2137 60.2317 45.534 61.0076 46.6781C61.464 47.3645 61.8292 48.2798 61.8292 49.1035C61.9205 58.2103 61.8748 67.3628 61.8748 76.4238C61.8748 77.8882 61.3728 79.1238 59.9578 79.7645C58.7255 80.3137 57.5387 80.2221 56.4889 79.3984C55.5304 78.6662 55.2109 77.6137 55.2109 76.4238V62.7865Z" fill="#231815"/>
<path id="Shape_3" fill-rule="evenodd" clip-rule="evenodd" d="M122.216 58.3475C122.216 64.1136 125.959 67.8661 131.664 67.8661C137.826 67.8661 141.477 64.1593 141.477 58.0271C141.477 51.9865 138.054 48.3254 132.394 48.3254C126.095 48.3712 122.216 52.1695 122.216 58.3475ZM137.004 58.2331C137.038 58.2445 137.073 58.2559 137.095 58.2559C136.991 58.6459 136.906 59.0408 136.821 59.4341C136.647 60.2409 136.475 61.0413 136.137 61.7797C135.407 63.5644 133.855 64.3424 132.029 64.3424C130.158 64.3424 128.515 63.6559 127.647 61.917C126.369 59.3543 126.369 56.6543 127.784 54.1373C128.88 52.261 131.025 51.5288 133.307 52.0322C135.087 52.4441 136.548 54.2288 136.776 56.2882C136.837 56.7153 136.857 57.1424 136.877 57.5695C136.888 57.7831 136.898 57.9966 136.913 58.2102C136.936 58.2102 136.97 58.2216 137.004 58.2331Z" fill="#231815"/>
<path id="Shape_4" fill-rule="evenodd" clip-rule="evenodd" d="M180.913 64.3882C178.357 64.1594 176.577 62.1459 176.668 59.4459V59.4001H177.992C179.089 59.4001 180.181 59.395 181.271 59.3899C183.447 59.3797 185.616 59.3696 187.805 59.4001C188.718 59.4001 189.129 59.1255 189.037 58.1645C188.998 57.7722 188.984 57.38 188.97 56.9877C188.952 56.4647 188.933 55.9417 188.855 55.4187C188.444 52.3069 187.12 49.7899 184.017 48.7374C180.73 47.6391 177.672 48.1882 175.025 50.5679C171.054 54.0916 171.191 61.1391 173.793 64.5713C174.568 65.6696 175.755 66.6764 176.988 67.134C180.274 68.4153 183.56 68.1408 186.755 66.7221C187.12 66.5848 187.531 66.1272 187.577 65.8069C187.675 65.1188 187.656 64.4074 187.637 63.706C187.63 63.4277 187.622 63.151 187.622 62.8781H187.166C187.029 62.9238 186.892 63.0153 186.755 63.1069L186.755 63.1069C184.975 64.2509 182.967 64.617 180.913 64.3882ZM181.095 51.6662C183.423 51.8035 184.838 53.5882 184.61 56.1967H176.668C176.668 53.7255 178.813 51.5289 181.095 51.6662Z" fill="#231815"/>
<path id="Path_4" d="M52.6094 63.0152C52.6094 66.4474 52.6094 69.8796 52.6094 73.3118C52.6094 74.7762 51.9248 75.9203 50.5099 76.5152C49.2318 77.0186 47.9082 76.9271 46.9953 75.8288C46.4476 75.1423 45.9912 74.1355 45.9912 73.2661C45.8999 66.3559 45.9455 59.4457 45.9912 52.5355C45.9912 50.3847 47.4061 48.9661 49.3688 49.0118C51.2401 49.0576 52.6094 50.522 52.6094 52.5813C52.6094 56.0593 52.6094 59.583 52.6094 63.0152Z" fill="#231815"/>
<path id="Path_5" d="M43.2982 62.8779C43.2982 65.1202 43.2982 67.3626 43.2982 69.5592C43.2982 71.5728 41.8376 73.083 40.0119 73.083C38.1862 73.1287 36.7256 71.5728 36.7256 69.5592C36.7256 65.0745 36.7256 60.544 36.7256 56.0592C36.7256 54.0457 38.0492 52.6728 39.9206 52.627C41.8376 52.5813 43.2982 54.0457 43.2982 56.0135C43.3438 58.3016 43.2982 60.5897 43.2982 62.8779Z" fill="#231815"/>
<path id="Path_6" d="M243.946 67.3628H239.336V41.3696C240.705 41.3696 242.075 41.3238 243.444 41.4154C243.626 41.4154 243.9 42.056 243.9 42.4221C243.946 45.6713 243.9 48.9204 243.9 52.1238V65.6696V67.3628H243.946Z" fill="#231815"/>
<path id="Path_7" d="M197.253 67.4542C195.929 67.4542 194.788 67.4542 193.693 67.4542C193.465 67.4542 193.236 67.4084 192.917 67.4084V48.9203H197.207V51.8491C197.755 51.1169 198.075 50.5677 198.485 50.1101C199.627 48.7372 201.178 48.2796 202.913 48.6457C203.232 48.6915 203.689 49.1033 203.734 49.3779C203.826 50.522 203.78 51.666 203.78 52.9016C203.141 52.7643 202.639 52.5813 202.137 52.5355C199.398 52.261 197.39 54.4118 197.344 57.661C197.299 60.4525 197.344 63.244 197.344 66.0813V67.4542H197.253Z" fill="#231815"/>
<path id="Path_8" d="M33.987 62.9696V66.5848C33.987 68.5069 32.709 69.8798 30.8833 70.017C29.2401 70.1086 27.5057 68.6899 27.4601 66.8594C27.3688 64.2052 27.3688 61.5967 27.4601 58.9425C27.5057 57.1577 29.2401 55.7391 30.9289 55.8306C32.7547 55.9221 33.987 57.3408 34.0327 59.2628V62.9696H33.987Z" fill="#231815"/>
<path id="Path_9" d="M221.535 55.6931C223.407 55.8304 225.095 55.8304 226.738 56.105C228.884 56.4253 229.933 57.7524 229.933 59.766C229.933 61.7338 228.701 63.2897 226.693 63.6101C225.232 63.7931 223.772 63.7931 222.311 63.7474C222.083 63.7474 221.626 63.2897 221.626 63.0609C221.535 60.727 221.535 58.3474 221.535 55.6931Z" fill="white"/>
<path id="Path_10" d="M221.535 48.6001C221.535 48.4628 221.535 48.3713 221.535 48.234C221.672 47.1814 221.444 45.5797 222.037 45.2136C223.361 44.2984 227.24 45.2136 228.108 46.2662C229.659 48.0509 228.564 51.3001 226.099 51.895C224.867 52.1696 223.498 52.1238 222.174 52.1238C221.946 52.1238 221.581 51.6662 221.535 51.3916C221.489 50.4306 221.535 49.5153 221.535 48.6001Z" fill="white"/>
<path id="Path_11" d="M108.157 54.4576C108.157 51.3915 108.157 48.6457 108.203 45.9C108.203 45.6711 108.614 45.2593 108.796 45.2593C110.257 45.2593 111.763 45.1677 113.178 45.4423C115.278 45.8542 116.236 47.2728 116.236 49.5152C116.236 51.8491 115.186 53.5881 113.132 54C111.58 54.3203 109.937 54.3203 108.157 54.4576Z" fill="white"/>
<path id="Path_12" d="M137.096 58.2559C136.822 59.4457 136.685 60.6813 136.183 61.7796C135.452 63.5186 133.855 64.2966 132.075 64.3423C130.203 64.3423 128.56 63.6559 127.693 61.9169C126.369 59.3542 126.369 56.6542 127.83 54.1372C128.925 52.2152 131.071 51.483 133.353 52.0322C135.133 52.444 136.593 54.2288 136.822 56.2881C136.913 56.9288 136.913 57.5694 136.959 58.2101C136.959 58.2559 137.05 58.2559 137.096 58.2559Z" fill="white"/>
<path id="Path_13" d="M184.61 56.1965H176.668C176.668 53.7253 178.813 51.5287 181.095 51.666C183.423 51.8033 184.838 53.5881 184.61 56.1965Z" fill="white"/>
</g>
</g>
</svg>
