<svg width="205" height="60" viewBox="0 0 205 60" fill="none" xmlns="http://www.w3.org/2000/svg">
<g id="logo/ python copy">
<g id="logo/ python">
<path id="path46" fill-rule="evenodd" clip-rule="evenodd" d="M79.5165 33.65C81.0193 31.5421 81.7665 28.8914 81.7665 25.698C81.7665 22.1175 81.0109 19.1892 79.5039 16.9046C77.8877 14.4138 75.5873 13.1853 72.6027 13.2232L72.5481 13.1685C69.2822 13.2021 66.5075 13.8879 64.2239 15.2217C63.2416 15.7854 62.4314 16.4502 61.8018 17.2244V47.4922L65.6385 48.8638V35.2277C68.0103 36.7003 70.3149 37.403 72.5523 37.3314C75.5202 37.2641 77.8416 36.0355 79.5165 33.65ZM71.9898 15.7476C75.5663 15.9243 77.3546 19.1513 77.3546 25.4372C77.3546 31.298 75.4782 34.3484 71.7296 34.5966C69.9581 34.7018 67.9263 34.0328 65.6385 32.5939V17.5904C66.0206 17.2033 66.7468 16.8205 67.8256 16.4334C69.1773 15.9075 70.5668 15.6803 71.9898 15.7476Z" fill="#646464"/>
<path id="path48" d="M105.215 34.6471C105.215 38.9302 104.787 41.8964 103.931 43.5457C103.07 45.195 101.433 46.5119 99.0152 47.4922C97.0548 48.2664 94.9349 48.6871 92.6597 48.7587L92.0259 46.3352C94.3389 46.0197 95.9676 45.7041 96.9121 45.3885C98.7717 44.7574 100.048 43.7897 100.749 42.4939C101.311 41.4378 101.588 39.4225 101.588 36.4395V35.4381C98.9648 36.633 96.2153 37.2262 93.3398 37.2262C91.4508 37.2262 89.7842 36.633 88.3486 35.4381C86.7366 34.138 85.9307 32.4887 85.9307 30.4902V14.4854L89.7675 13.1685V29.2785C89.7675 30.9993 90.3216 32.3246 91.4298 33.2545C92.538 34.1843 93.9737 34.6303 95.7325 34.5966C97.4914 34.5588 99.3762 33.8772 101.379 32.5434V13.7491H105.215V34.6471Z" fill="#646464"/>
<path id="path50" d="M120.193 37.1211C119.736 37.1589 119.316 37.1758 118.93 37.1758C116.76 37.1758 115.068 36.6583 113.859 35.619C112.654 34.5798 112.05 33.1451 112.05 31.3149V16.1683H109.422V13.7491H112.05V7.32443L115.882 5.95703V13.7491H120.193V16.1683H115.882V31.2097C115.882 32.6528 116.268 33.6752 117.041 34.2727C117.704 34.7649 118.758 35.0468 120.193 35.1184V37.1211Z" fill="#646464"/>
<path id="path52" d="M143.424 36.8055H139.587V21.9618C139.587 20.4514 139.235 19.1513 138.534 18.0658C137.724 16.8372 136.599 16.223 135.154 16.223C133.396 16.223 131.196 17.1528 128.556 19.0125V36.8055H124.719V1.32464L128.556 0.112915V16.2734C131.007 14.4853 133.685 13.5891 136.594 13.5891C138.626 13.5891 140.272 14.2749 141.531 15.6423C142.794 17.0097 143.424 18.7137 143.424 20.7501V36.8055Z" fill="#646464"/>
<path id="path54" fill-rule="evenodd" clip-rule="evenodd" d="M165.391 33.4396C167.142 31.155 168.019 28.294 168.019 24.8565C168.019 21.6253 167.091 18.9073 165.236 16.6942C163.238 14.3465 160.643 13.1685 157.457 13.1685C154.271 13.1685 151.694 14.3465 149.733 16.6942C147.878 18.9073 146.95 21.6253 146.95 24.8565C146.95 28.294 147.807 31.155 149.523 33.4396C151.417 35.9977 154.04 37.2809 157.407 37.2809C160.803 37.2809 163.464 35.9977 165.391 33.4396ZM162.448 18.8442C163.359 20.422 163.817 22.4163 163.817 24.8313C163.817 31.4832 161.705 34.8238 157.482 34.8575C155.232 34.8953 153.545 33.7762 152.42 31.5084C151.538 29.7287 151.102 27.5114 151.102 24.8565C151.102 19.0672 153.201 16.0463 157.407 15.8023C159.682 15.9075 161.365 16.9214 162.448 18.8442Z" fill="#646464"/>
<path id="path56" d="M190.015 36.8055H186.178V21.1204C186.178 19.3996 185.662 18.0574 184.629 17.0897C183.596 16.1262 182.22 15.6592 180.503 15.6971C178.681 15.7308 176.947 16.3282 175.302 17.4852V36.8055H171.465V17.0098C173.673 15.3984 175.705 14.3465 177.56 13.8543C179.311 13.3957 180.855 13.1685 182.186 13.1685C183.097 13.1685 183.953 13.2568 184.759 13.4335C186.266 13.7827 187.492 14.4307 188.437 15.3815C189.49 16.4334 190.015 17.6956 190.015 19.1724V36.8055Z" fill="#646464"/>
<path id="path1948" fill-rule="evenodd" clip-rule="evenodd" d="M18.3889 1.93883C20.0477 1.64464 21.9328 1.4759 23.9069 1.46671C25.8809 1.45751 27.9392 1.60787 29.9228 1.93883C33.0565 2.46231 35.6965 4.81847 35.6965 7.95501V18.9757C35.6965 22.2074 33.1335 24.857 29.9228 24.857H18.3889C14.4729 24.857 11.1751 28.2266 11.1751 32.0467V37.3345H7.20487C3.84888 37.3345 1.88862 34.8931 1.06779 31.4667C-0.039473 26.8636 0.00755423 24.1126 1.06779 19.7041C1.98695 15.8581 4.92556 13.8363 8.28155 13.8363H12.6152H24.1626V12.366H12.6152V7.95501C12.6152 4.61513 13.5024 2.80408 18.3889 1.93883ZM19.829 7.2266C19.829 6.00659 18.8549 5.01437 17.6621 5.01437C16.4651 5.01437 15.4953 6.00659 15.4953 7.2266C15.4953 8.44228 16.4651 9.42534 17.6621 9.42534C18.8549 9.42534 19.829 8.44228 19.829 7.2266Z" fill="url(#paint0_linear_0_35802)"/>
<path id="path1950" fill-rule="evenodd" clip-rule="evenodd" d="M37.1366 18.9757V13.8363H41.4703C44.8305 13.8363 46.4146 16.3556 47.244 19.7041C48.3983 24.3549 48.4496 27.8413 47.244 31.4667C46.0769 34.9883 44.8263 37.3345 41.4703 37.3345H35.6966H24.1626V38.8048H35.6966V43.2158C35.6966 46.5557 32.83 48.2535 29.9229 49.0971C25.5494 50.369 22.0442 50.1743 18.3889 49.0971C15.3365 48.1972 12.6152 46.3523 12.6152 43.2158V32.1951C12.6152 29.024 15.2296 26.3138 18.3889 26.3138H29.9229C33.7662 26.3138 37.1366 22.9602 37.1366 18.9757ZM32.8165 43.9442C32.8165 42.7285 31.8467 41.7455 30.6496 41.7455C29.4569 41.7455 28.4828 42.7285 28.4828 43.9442C28.4828 45.1642 29.4569 46.1564 30.6496 46.1564C31.8467 46.1564 32.8165 45.1642 32.8165 43.9442Z" fill="url(#paint1_linear_0_35802)"/>
<path id="text3004" fill-rule="evenodd" clip-rule="evenodd" d="M198.16 10.3206H197.487V6.09204H195.894V5.58801H199.753V6.09204H198.16V10.3206ZM200.925 10.3206H200.35V5.58801H201.277L202.489 9.64248L203.909 5.58801H204.739V10.3206H204.112V6.4717L202.812 10.3201H202.172L200.925 6.4586V10.3206Z" fill="#646464"/>
<path id="path1894" opacity="0.44382" d="M39.7683 56.589C39.7683 57.6635 36.8189 58.6563 32.031 59.1936C27.2432 59.7308 21.3444 59.7308 16.5566 59.1936C11.7688 58.6563 8.81934 57.6635 8.81934 56.589C8.81934 55.5145 11.7688 54.5217 16.5566 53.9845C21.3444 53.4472 27.2432 53.4472 32.031 53.9845C36.8189 54.5217 39.7683 55.5145 39.7683 56.589Z" fill="url(#paint2_radial_0_35802)"/>
</g>
</g>
<defs>
<linearGradient id="paint0_linear_0_35802" x1="-11.106" y1="14.831" x2="15.5738" y2="37.5106" gradientUnits="userSpaceOnUse">
<stop stop-color="#5A9FD4"/>
<stop offset="1" stop-color="#306998"/>
</linearGradient>
<linearGradient id="paint1_linear_0_35802" x1="37.0063" y1="38.774" x2="27.3534" y2="25.4307" gradientUnits="userSpaceOnUse">
<stop stop-color="#FFD43B"/>
<stop offset="1" stop-color="#FFE873"/>
</linearGradient>
<radialGradient id="paint2_radial_0_35802" cx="0" cy="0" r="1" gradientUnits="userSpaceOnUse" gradientTransform="translate(24.2938 56.589) rotate(-90) scale(3.00748 15.4745)">
<stop stop-color="#B8B8B8" stop-opacity="0.498039"/>
<stop offset="1" stop-color="#7F7F7F" stop-opacity="0.01"/>
</radialGradient>
</defs>
</svg>
