<svg width="76" height="59" viewBox="0 0 76 59" fill="none" xmlns="http://www.w3.org/2000/svg">
<g id="logo/ R Copy">
<g id="logo/ R">
<path id="Shape" fill-rule="evenodd" clip-rule="evenodd" d="M38.048 51.1549C17.0876 51.1549 0.0957031 39.7035 0.0957031 25.5775C0.0957031 11.4514 17.0876 0 38.048 0C59.0085 0 76.0003 11.4514 76.0003 25.5775C76.0003 39.7035 59.0085 51.1549 38.048 51.1549ZM43.8573 9.99992C27.9255 9.99992 15.0102 17.8286 15.0102 27.4857C15.0102 37.1429 27.9255 44.9716 43.8573 44.9716C59.789 44.9716 71.5463 39.6193 71.5463 27.4857C71.5463 15.356 59.789 9.99992 43.8573 9.99992Z" fill="url(#paint0_linear_0_35826)"/>
<path id="Shape_2" fill-rule="evenodd" clip-rule="evenodd" d="M57.8945 39.6158C57.8945 39.6158 60.1915 40.3133 61.5261 40.9928C61.9891 41.2286 62.7903 41.6991 63.3682 42.3168C63.9343 42.9219 64.2103 43.535 64.2103 43.535L73.2629 58.894L58.6313 58.9006L51.7892 45.9712C51.7892 45.9712 50.3882 43.5488 49.5261 42.8465C48.8069 42.2606 48.5003 42.052 47.7892 42.052C47.2943 42.052 44.3128 42.052 44.3128 42.052L44.3155 58.8913L31.3682 58.8968V15.8821H57.3682C57.3682 15.8821 69.2103 16.097 69.2103 27.4344C69.2103 38.7719 57.8945 39.6158 57.8945 39.6158ZM52.2629 25.2126L44.4247 25.2075L44.4208 32.5216L52.2629 32.519C52.2629 32.519 55.8945 32.5077 55.8945 28.7984C55.8945 25.0146 52.2629 25.2126 52.2629 25.2126Z" fill="url(#paint1_linear_0_35826)"/>
</g>
</g>
<defs>
<linearGradient id="paint0_linear_0_35826" x1="-84.5181" y1="-5.86941" x2="-46.5742" y2="119.654" gradientUnits="userSpaceOnUse">
<stop stop-color="#CBCED0"/>
<stop offset="1" stop-color="#84838B"/>
</linearGradient>
<linearGradient id="paint1_linear_0_35826" x1="9.55691" y1="38.2784" x2="54.286" y2="80.1137" gradientUnits="userSpaceOnUse">
<stop stop-color="#276DC3"/>
<stop offset="1" stop-color="#165CAA"/>
</linearGradient>
</defs>
</svg>
