<svg width="113" height="55" viewBox="0 0 113 55" fill="none" xmlns="http://www.w3.org/2000/svg">
<g id="logo/ sap-vector-logo copy">
<g id="logo/ sap-vector-logo">
<path id="Path" fill-rule="evenodd" clip-rule="evenodd" d="M0 55H56.4681L111.73 0H0V55Z" fill="url(#paint0_linear_0_35792)"/>
<path id="Shape" fill-rule="evenodd" clip-rule="evenodd" d="M66.3061 11H55.2714L55.3083 36.8255L45.6996 10.9914H36.172L27.9696 32.5673C27.0976 27.0771 21.3935 25.1826 16.9055 23.7636C13.9417 22.8164 10.7961 21.4231 10.828 19.8831C10.8526 18.6193 12.5107 17.4472 15.8062 17.622C18.017 17.7405 19.97 17.9178 23.855 19.7853L27.6749 13.1609C24.1325 11.3666 19.2342 10.2336 15.2178 10.23H15.1933C10.5099 10.23 6.61018 11.7394 4.19296 14.2266C2.50779 15.9622 1.59887 18.1695 1.56203 20.6103C1.50061 23.969 2.73747 26.3499 5.33647 28.2529C7.5326 29.854 10.3416 30.8929 12.8166 31.6555C15.8688 32.5966 18.3622 33.4155 18.3315 35.1584C18.3069 35.794 18.0662 36.388 17.6068 36.8671C16.8453 37.6493 15.6784 37.9426 14.0633 37.9744C10.9472 38.0404 8.63804 37.5528 4.95817 35.3882L1.55957 42.0982C5.23576 44.1784 9.13794 45.2222 13.572 45.2222L14.5693 45.2149C18.4285 45.1452 21.5606 44.2249 24.049 42.2326C24.1915 42.119 24.3192 42.0041 24.4519 41.888L24.0343 44.0293L33.3445 44L35.0149 39.7442C36.7714 40.3406 38.7685 40.6706 40.8885 40.6706C42.9544 40.6706 44.8975 40.3578 46.6208 39.7955L47.7852 44L64.4895 44.0159L64.53 34.3139H68.0846C76.6763 34.3139 81.7552 29.9628 81.7552 22.6661C81.7527 14.5395 76.8151 11 66.3061 11ZM40.8885 33.0758C39.6049 33.0758 38.4013 32.8533 37.3658 32.4622L40.8492 21.5172H40.9167L44.3436 32.4928C43.3118 32.8594 42.1364 33.0758 40.8873 33.0758H40.8885ZM66.9522 26.7874H64.5276V17.9666H66.9534C70.1837 17.9666 72.7631 19.0373 72.7631 22.3202C72.7606 25.718 70.1837 26.7874 66.9534 26.7874H66.9522Z" fill="white"/>
</g>
</g>
<defs>
<linearGradient id="paint0_linear_0_35792" x1="-0.00124205" y1="0" x2="-0.00124205" y2="55.0012" gradientUnits="userSpaceOnUse">
<stop stop-color="#00AEEF"/>
<stop offset="0.212" stop-color="#0097DC"/>
<stop offset="0.519" stop-color="#007CC5"/>
<stop offset="0.792" stop-color="#006CB8"/>
<stop offset="1" stop-color="#0066B3"/>
</linearGradient>
</defs>
</svg>
