<svg width="170" height="40" viewBox="0 0 170 40" fill="none" xmlns="http://www.w3.org/2000/svg">
<g id="snowflake" opacity="0.4">
<g id="logo/ snowflake-seeklogo.com">
<path id="Shape" fill-rule="evenodd" clip-rule="evenodd" d="M18.0474 12.2556C18.0474 13.0146 17.7935 13.605 17.2869 14.1105C16.5266 14.87 15.2595 15.0383 14.4148 14.4481L5.96713 9.55684C5.92467 9.55684 5.90346 9.53575 5.88228 9.51468C5.86113 9.49366 5.84001 9.47265 5.7978 9.47265C4.61518 8.79801 4.27752 7.28018 5.03783 6.09926C5.7133 4.91868 7.23408 4.58161 8.4167 5.34027L13.1474 8.12353V2.55717C13.1474 1.20805 14.2455 0.111816 15.5973 0.111816C16.9489 0.111816 18.0474 1.20805 18.0474 2.55717V12.2556ZM12.3869 17.8209C13.2317 18.2429 13.6543 19.0862 13.6543 20.0139C13.6543 20.9416 13.2317 21.785 12.4717 22.2067L4.02353 27.0976H3.8547C2.58775 27.7722 1.1518 27.351 0.475827 26.086C-0.20015 24.8209 0.306832 23.387 1.48946 22.7127L6.30461 19.9294L1.48946 17.1465C1.44731 17.1465 1.42623 17.1254 1.40514 17.1043C1.38402 17.0832 1.3629 17.0621 1.32063 17.0621C0.138006 16.3875 -0.20015 14.8698 0.560324 13.6887C1.23613 12.5081 2.75658 12.1711 3.93953 12.9297L12.3869 17.8209ZM18.0474 27.6882V37.4708C18.0474 38.8201 16.9489 39.9162 15.5973 39.9162C14.2455 39.9162 13.1474 38.8199 13.1474 37.4708V31.9891L8.33221 34.7722C7.14958 35.5309 5.6288 35.1938 4.95333 34.0132C4.19286 32.8325 4.53068 31.3145 5.7133 30.6399C5.75545 30.6399 5.77653 30.6188 5.79762 30.5977C5.81873 30.5766 5.83986 30.5555 5.88213 30.5555L14.3303 25.6643C15.5129 24.9895 17.1181 25.4112 17.7937 26.6762C17.9625 26.9289 18.1313 27.351 18.0474 27.6882ZM22.4399 37.4706V27.9413C22.3554 27.5195 22.5244 26.9289 22.693 26.5075C23.3688 25.3267 24.8896 24.905 26.0722 25.5798L34.5201 30.471C34.5622 30.471 34.5833 30.492 34.6044 30.5131C34.6255 30.5342 34.6466 30.5553 34.6889 30.5553C35.8715 31.23 36.2097 32.7476 35.4492 33.9287C34.7734 35.1093 33.2526 35.4464 32.07 34.6877L27.3393 31.989V37.4706C27.3393 38.8198 26.2412 39.916 24.8898 39.916C23.538 39.916 22.4399 38.8199 22.4399 37.4706ZM26.8329 20.0139C26.8329 19.0862 27.255 18.2429 28.0998 17.8209L36.5477 12.9297C37.7303 12.1711 39.2511 12.5081 39.9269 13.6887C40.6869 14.8698 40.3492 16.3875 39.1664 17.0621C39.1243 17.0621 39.1032 17.0832 39.0821 17.1043C39.061 17.1254 39.0399 17.1465 38.9976 17.1465L34.1821 19.9294L38.9976 22.7125C40.1802 23.3868 40.6869 24.8208 40.0112 26.0859C39.3354 27.2665 37.899 27.7721 36.632 27.0974C36.5899 27.0974 36.5688 27.0764 36.5477 27.0553C36.5266 27.0342 36.5055 27.0131 36.4632 27.0131L28.0155 22.1219C27.255 21.785 26.7484 20.9416 26.8329 20.0139ZM22.4399 2.55717V12.0869C22.3554 12.5927 22.5244 13.0989 22.693 13.5204C23.3688 14.7009 24.8896 15.1227 26.0722 14.4479L34.5201 9.55667C34.5622 9.55667 34.5833 9.53564 34.6044 9.51461C34.6255 9.49355 34.6466 9.47249 34.6889 9.47249C35.8715 8.79784 36.2097 7.28002 35.4492 6.0991C34.7734 4.91851 33.2526 4.58144 32.07 5.3401L27.3393 8.03885V2.55717C27.3393 1.20805 26.2412 0.111816 24.8898 0.111816C23.538 0.111816 22.4399 1.20805 22.4399 2.55717ZM21.2572 15.6286C21.0884 15.4603 20.9191 15.3756 20.6658 15.3756H19.821C19.5676 15.3756 19.3986 15.4603 19.2298 15.6286L15.8506 19.002C15.6818 19.1706 15.5973 19.3393 15.5973 19.592V20.4357C15.5973 20.6887 15.6818 20.8573 15.8506 21.0258L19.2298 24.3992C19.3986 24.5677 19.5676 24.6521 19.821 24.6521H20.6658C20.9191 24.6521 21.0884 24.5677 21.2572 24.3992L24.6361 21.0258C24.7206 20.8571 24.8053 20.6042 24.8053 20.4357V19.592C24.8053 19.3391 24.7206 19.1704 24.5516 19.002L21.2572 15.6286ZM20.3279 18.4116C20.4969 18.4116 20.6658 18.4959 20.7503 18.5806L21.7639 19.5922C21.8482 19.6765 21.933 19.8455 21.933 20.0141C21.933 20.1828 21.8482 20.3517 21.7639 20.436L20.7503 21.4477C20.6658 21.5319 20.4968 21.6166 20.3279 21.6166C20.1586 21.6166 19.9896 21.5319 19.9056 21.4477L18.8917 20.436C18.8072 20.3517 18.7227 20.1828 18.7227 20.0141C18.7227 19.8455 18.8072 19.6765 18.8917 19.5922L19.9056 18.5806C19.9898 18.4959 20.1586 18.4116 20.3279 18.4116Z" fill="white"/>
<path id="Shape_2" fill-rule="evenodd" clip-rule="evenodd" d="M143.83 27.1836C143.405 27.1836 143.065 26.8443 143.065 26.4199V6.89654C143.065 6.47194 143.405 6.13269 143.83 6.13269C144.255 6.13269 144.596 6.47194 144.596 6.89654V21.0719L153.353 12.5836C153.609 12.329 154.034 12.329 154.289 12.5836C154.629 12.8383 154.629 13.2626 154.374 13.6023L148.677 19.0348L154.374 25.9104C154.459 25.9951 154.544 26.2497 154.544 26.4197C154.459 26.8443 154.204 27.0989 153.779 27.0989C153.524 27.0989 153.269 27.014 153.183 26.8443L147.572 20.0535L144.596 23.0244V26.4199C144.596 26.8443 144.255 27.1836 143.83 27.1836ZM121.552 26.4199C121.552 26.8443 121.892 27.1836 122.318 27.1836C122.743 27.1836 123.083 26.8443 123.083 26.4199V6.89671C123.083 6.4721 122.743 6.13286 122.318 6.13286C121.892 6.13286 121.552 6.4721 121.552 6.89671V26.4199ZM117.556 7.74574H117.641L117.811 7.8301C118.236 7.8301 118.576 7.49051 118.576 7.06608C118.576 6.64148 118.236 6.30223 117.811 6.30223H117.385C116.365 6.21721 115.26 6.64148 114.495 7.40583C113.814 8.33955 113.474 9.61269 113.56 10.8011V12.329H111.604C111.263 12.329 110.923 12.5837 110.923 13.008C110.923 13.4328 111.263 13.772 111.688 13.772H113.645V26.5044V26.5894C113.645 27.014 113.985 27.2686 114.41 27.2686C114.835 27.1837 115.09 26.9288 115.09 26.5046V13.7722H117.131C117.556 13.7722 117.896 13.4329 117.896 13.0082C117.811 12.5837 117.556 12.3292 117.131 12.3292H115.09V10.8013C115.005 9.95227 115.175 9.10374 115.685 8.33972C116.195 7.83043 116.875 7.66072 117.556 7.74574ZM50.978 27.1837C49.9577 27.1837 48.8522 26.9288 47.9169 26.5046C46.3862 25.7407 45.7062 25.1467 46.3012 24.5526C46.5481 24.3061 46.8534 24.4829 47.3567 24.7744C48.067 25.1859 49.1717 25.8257 51.0629 25.8257C52.1684 25.8257 54.7194 25.1469 54.7194 23.1096C54.6377 21.7253 52.9907 21.1219 51.4306 20.5504L51.2332 20.478C50.971 20.3816 50.6551 20.2874 50.3102 20.1846C48.5295 19.6539 45.9751 18.8926 46.0462 16.4035C45.9614 15.1305 46.6415 14.0269 47.6619 13.4329C48.6822 12.7534 49.9577 12.4142 51.2332 12.4989C53.3587 12.4989 56.1647 14.7061 55.3995 15.3851C55.0728 15.675 54.7616 15.4233 54.2872 15.0397C53.6505 14.5248 52.7197 13.7722 51.0629 13.7722C49.8727 13.7722 47.6619 14.5362 47.6619 16.3188C47.6619 17.5864 49.1059 18.0678 50.6098 18.5692L50.6099 18.5693C50.8178 18.6385 51.0267 18.7082 51.2332 18.7804C51.412 18.8399 51.5903 18.8981 51.7674 18.9559L51.7675 18.956L51.7675 18.956L51.7676 18.956C54.1178 19.7234 56.25 20.4196 56.25 23.0244C56.25 24.2129 55.6545 25.401 54.6342 26.0803C53.6137 26.8445 52.2535 27.2688 50.978 27.1837ZM70.4497 27.1837C70.1096 27.1837 69.7692 26.9288 69.6844 26.5046L69.7691 18.5255C69.7691 16.0641 67.7287 14.0267 65.2626 14.0267C62.7119 14.0267 60.6712 16.0641 60.6712 18.5255V26.6744C60.6712 26.8438 60.5867 26.9283 60.5019 27.0132L60.5009 27.0142C60.4162 27.1837 60.2462 27.2688 59.9911 27.2688H59.7357C59.4811 27.1837 59.3111 27.0142 59.2256 26.8445V26.7593V26.6743V13.2627C59.2256 12.9233 59.5659 12.5837 59.9061 12.5837C60.2464 12.5837 60.5862 12.8385 60.5862 13.2627V14.7061C61.6917 13.3478 63.3922 12.5837 65.1779 12.5837C68.4937 12.5837 71.1299 15.215 71.1299 18.5255V26.5046C71.0451 26.8445 70.7896 27.1837 70.4497 27.1837ZM73.7657 19.884C73.9361 23.7034 77.2519 26.6743 81.0784 26.4201C84.9049 26.25 87.8808 22.9396 87.6256 19.1201C87.4556 15.3852 84.3946 12.4989 80.6533 12.4989C76.8269 12.6684 73.6809 15.8944 73.7657 19.884ZM75.2116 19.2897C75.3816 16.2338 78.0173 13.7722 81.0784 13.9419C84.1396 14.1119 86.4349 16.9128 86.2649 19.9687C86.0949 22.8549 83.4594 25.1466 80.5683 25.1466C77.4223 24.9767 75.1263 22.4303 75.2116 19.2897ZM95.5331 26.7593C95.4483 27.014 95.1928 27.1837 94.9378 27.1837C94.8531 27.0991 94.768 27.0991 94.5981 27.1837L94.513 27.0991C94.428 27.014 94.3431 26.929 94.258 26.7593L89.3263 13.6026C89.1563 13.2629 89.3263 12.8386 89.6661 12.6686C90.0063 12.5839 90.4318 12.7536 90.6018 13.0932L94.8531 24.7221L98.2543 16.6584C98.3395 16.4035 98.6796 16.2338 98.9345 16.2338C99.19 16.2338 99.4446 16.4035 99.615 16.6584L103.016 24.7221L107.267 13.0932C107.437 12.6686 107.863 12.4989 108.203 12.6686C108.628 12.8386 108.798 13.2629 108.628 13.6026L103.696 26.7593C103.611 26.9285 103.526 27.0137 103.442 27.0985L103.441 27.0991C103.356 27.1837 103.186 27.2688 103.016 27.2688H102.931C102.675 27.1837 102.42 27.014 102.336 26.7593L98.9343 18.6107L95.5331 26.6743V26.7593ZM138.303 13.1779C138.388 12.8385 138.644 12.4989 139.069 12.4989C139.409 12.4989 139.749 12.8385 139.749 13.178V26.4202C139.664 26.7596 139.409 27.0994 139.069 27.0994C138.729 27.0994 138.388 26.8447 138.303 26.4202V24.213C137.028 25.9955 134.987 27.0992 132.776 27.0992C129.035 26.929 125.974 23.9581 125.804 20.1384C125.549 16.0644 128.695 12.5841 132.776 12.4144C134.987 12.4144 137.028 13.5178 138.303 15.3002V13.1779ZM133.287 25.8257C129.971 26.0803 127.335 23.5339 127.08 20.2232C126.825 16.9126 129.12 14.1968 132.351 13.9419C135.667 13.6873 138.133 16.1491 138.303 19.4594V19.884C138.388 23.0246 135.922 25.6557 132.776 25.7407H133.287V25.8257ZM169.424 23.5337C169.594 23.1941 169.509 22.7698 169.169 22.5151C168.829 22.3454 168.404 22.4301 168.234 22.7697C167.299 24.4674 165.513 25.6555 163.472 25.7406H162.792C159.731 25.6555 157.18 23.1939 157.18 20.138H169.254C169.594 20.138 169.934 19.8837 169.934 19.5441V19.3744C169.509 15.4694 166.023 12.5836 162.112 13.0078C158.2 13.4326 155.309 16.9124 155.735 20.8172C156.075 24.4673 159.136 27.1834 162.792 27.2684H163.472C166.023 27.014 168.234 25.6557 169.424 23.5337ZM168.404 18.6952C167.979 15.9791 165.598 14.2815 162.877 14.2815C160.071 14.2815 157.775 15.9791 157.265 18.6952H168.404Z" fill="white"/>
</g>
</g>
</svg>
