<svg width="48" height="48" viewBox="0 0 48 48" fill="none" xmlns="http://www.w3.org/2000/svg">
<path fill-rule="evenodd" clip-rule="evenodd" d="M34.173 24.557L13.4368 3.8201C12.3433 2.72663 10.5704 2.72663 9.47696 3.8201L3.8201 9.47696C2.72663 10.5704 2.72663 12.3433 3.8201 13.4368L15.568 25.184H17.83L4.95147 12.3054C4.48284 11.8368 4.48284 11.077 4.95147 10.6083L10.6083 4.95147C11.077 4.48284 11.8368 4.48284 12.3054 4.95147L32.538 25.184L34.1721 25.1848L34.173 24.557ZM44.5495 34.9328L37.8633 28.2465C37.567 28.7185 37.0791 29.058 36.5087 29.1559L43.4181 36.0642C43.8867 36.5328 43.8867 37.2926 43.4181 37.7612L37.7612 43.4181C37.2926 43.8867 36.5328 43.8867 36.0642 43.4181L21.83 29.184H19.567L34.9328 44.5495C36.0263 45.6429 37.7991 45.6429 38.8926 44.5495L44.5495 38.8926C45.6429 37.7991 45.6429 36.0263 44.5495 34.9328ZM15.9848 12.1848C15.9848 14.2835 14.2835 15.9848 12.1848 15.9848C10.0861 15.9848 8.38478 14.2835 8.38478 12.1848C8.38478 10.0861 10.0861 8.38478 12.1848 8.38478C14.2835 8.38478 15.9848 10.0861 15.9848 12.1848ZM9.98478 12.1848C9.98478 13.3998 10.9697 14.3848 12.1848 14.3848C13.3998 14.3848 14.3848 13.3998 14.3848 12.1848C14.3848 10.9697 13.3998 9.98478 12.1848 9.98478C10.9697 9.98478 9.98478 10.9697 9.98478 12.1848ZM36.1848 39.9848C38.2835 39.9848 39.9848 38.2835 39.9848 36.1848C39.9848 34.0861 38.2835 32.3848 36.1848 32.3848C34.0861 32.3848 32.3848 34.0861 32.3848 36.1848C32.3848 38.2835 34.0861 39.9848 36.1848 39.9848ZM36.1848 38.3848C34.9698 38.3848 33.9848 37.3998 33.9848 36.1848C33.9848 34.9698 34.9698 33.9848 36.1848 33.9848C37.3998 33.9848 38.3848 34.9698 38.3848 36.1848C38.3848 37.3998 37.3998 38.3848 36.1848 38.3848Z" fill="white"/>
<path opacity="0.6" d="M27.8197 13.1957L36.0639 4.9515C36.5325 4.48288 37.2923 4.48288 37.761 4.9515L43.4178 10.6084C43.8864 11.077 43.8864 11.8368 43.4178 12.3054L38.9963 16.7269C38.6839 17.0393 38.6839 17.5459 38.9963 17.8583C39.3087 18.1707 39.8153 18.1707 40.1277 17.8583L44.5492 13.4368C45.6426 12.3433 45.6426 10.5705 44.5492 9.47699L38.8923 3.82013C37.7989 2.72667 36.026 2.72667 34.9325 3.82013L26.6883 12.0644C26.3759 12.3768 26.3759 12.8833 26.6883 13.1957C27.0007 13.5082 27.5072 13.5082 27.8197 13.1957Z" fill="#33C8C3"/>
<path fill-rule="evenodd" clip-rule="evenodd" d="M38.7562 22.1884L39.8876 21.0571L36.4935 17.663L33.0994 21.0571L34.2307 22.1884L35.3822 21.037L35.3696 26.3848L12.1848 26.3848C11.7429 26.3848 11.3848 26.743 11.3848 27.1848L11.3848 32.4692C9.67023 32.8365 8.38477 34.3606 8.38477 36.1848C8.38477 38.2835 10.0861 39.9848 12.1848 39.9848C14.2834 39.9848 15.9848 38.2835 15.9848 36.1848C15.9848 34.3606 14.6993 32.8365 12.9848 32.4692L12.9848 27.9848H36.168C36.6092 27.9848 36.9671 27.6276 36.968 27.1864L36.9836 20.4159L38.7562 22.1884ZM12.1848 33.9848C12.1843 33.9848 12.1838 33.9848 12.1833 33.9848C10.9689 33.9856 9.98477 34.9703 9.98477 36.1848C9.98477 37.3998 10.9697 38.3848 12.1848 38.3848C13.3998 38.3848 14.3848 37.3998 14.3848 36.1848C14.3848 34.9698 13.3998 33.9848 12.1848 33.9848Z" fill="#33C8C3"/>
<path fill-rule="evenodd" clip-rule="evenodd" d="M36.1756 13.385L34.3372 15.2945L33.1846 14.1848L35.0651 12.2315L33.2002 10.2945L34.3528 9.18481L36.1756 11.0781L37.9984 9.18481L39.151 10.2945L37.2861 12.2315L39.1666 14.1848L38.014 15.2945L36.1756 13.385Z" fill="#33C8C3"/>
<path opacity="0.6" d="M20.6803 35.0427L12.3049 43.4181C11.8363 43.8867 11.0765 43.8867 10.6078 43.4181L4.95099 37.7613C4.48236 37.2926 4.48236 36.5328 4.95099 36.0642L9.58482 31.4304C9.89723 31.1179 9.89724 30.6114 9.58482 30.299C9.2724 29.9866 8.76586 29.9866 8.45344 30.299L3.81962 34.9328C2.72615 36.0263 2.72615 37.7992 3.81962 38.8926L9.47647 44.5495C10.5699 45.6429 12.3428 45.6429 13.4363 44.5495L21.8117 36.174C22.1241 35.8616 22.1241 35.3551 21.8117 35.0427C21.4993 34.7302 20.9928 34.7302 20.6803 35.0427Z" fill="#33C8C3"/>
</svg>
