<svg width="226" height="44" viewBox="0 0 226 44" fill="none" xmlns="http://www.w3.org/2000/svg">
<path d="M29.032 20.1968H23.0343V13.6978H20.6729V20.1968H14.668V22.505H20.6729V29.004H23.0343V22.505H29.032V20.1968Z" fill="#CF7535"/>
<path d="M16.9641 30.8073H11.5893V24.9863H9.55386V30.8073H4.17188V32.5745H9.55386V38.3955H11.5893V32.5745H16.9641V30.8073Z" fill="#AB2438"/>
<path d="M39.5285 9.99008H34.1538V4.14746H32.1183V9.99008H26.7363V11.7645H32.1183V17.5566H34.1538V11.7645H39.5285V9.99008Z" fill="#698699"/>
<path d="M26.4029 37.2629H22.7594V33.2019H21.0209V37.2629H17.3701V38.8281H21.0209V42.8819H22.7594V38.8281H26.4029V37.2629Z" fill="#5F658F"/>
<path d="M16.9641 9.99008H11.5241V4.14746H9.61905V9.99008H4.17188V11.714H9.61905V17.5566H11.5241V11.714H16.9641V9.99008Z" fill="#D69035"/>
<path d="M43.664 20.5645H40.0133V16.5107H38.2748V20.5645H34.624V22.1298H38.2748V26.1907H40.0133V22.1298H43.664V20.5645Z" fill="#5F658F"/>
<path fill-rule="evenodd" clip-rule="evenodd" d="M39.5285 30.8073H34.1538V24.9863H32.1183V30.8073H26.7363V32.5745H32.1183V38.3955H34.1538V32.5745H39.5285V30.8073Z" fill="#30467B"/>
<path d="M21.2382 0V3.98164H17.6309V5.18623H21.2382V9.16787H22.5348V5.18623H26.1493V3.98164H22.5348V0H21.2382Z" fill="#7D97A3"/>
<path d="M8.51846 20.7233H4.89667V16.821H3.62179V20.7233H0V21.9784L3.62179 21.9568V25.8807H4.89667V21.9496L8.51846 21.9279V20.7233Z" fill="#7D97A3"/>
<path fill-rule="evenodd" clip-rule="evenodd" d="M63.3158 43.5671C63.7536 43.827 64.2548 43.9618 64.7645 43.9566C65.8003 43.9566 66.3943 43.4878 66.3943 42.7376C66.4171 42.3225 66.2082 41.9286 65.851 41.7134C65.5226 41.5352 65.1783 41.3879 64.8224 41.2734C64.4458 41.1363 64.2647 40.9848 64.2647 40.8117C64.2647 40.6386 64.4747 40.4799 64.8731 40.4799C65.3471 40.5166 65.8072 40.657 66.2204 40.8911V40.0471C65.7827 39.8335 65.3026 39.7202 64.8152 39.7153C63.8663 39.7153 63.2578 40.213 63.2578 40.8983C63.2578 41.5835 63.7649 41.9875 64.8079 42.3409C65.1701 42.4635 65.3512 42.5429 65.3512 42.7953C65.3512 43.0478 65.1411 43.156 64.7355 43.156C64.2281 43.12 63.7411 42.9426 63.3302 42.6439L63.3158 43.5671Z" fill="#698699"/>
<path fill-rule="evenodd" clip-rule="evenodd" d="M83.5833 41.8361C83.5728 42.4155 83.8067 42.9728 84.228 43.3725C85.1496 44.1504 86.5009 44.1504 87.4225 43.3725C87.8338 42.9662 88.0652 42.4131 88.0652 41.8361C88.0652 41.2591 87.8338 40.706 87.4225 40.2997C86.5009 39.5218 85.1496 39.5218 84.228 40.2997C83.8067 40.6994 83.5728 41.2567 83.5833 41.8361ZM84.6481 41.8361C84.6915 41.198 85.2392 40.7114 85.8808 40.741C86.5225 40.7706 87.0226 41.3055 87.0065 41.945C86.9904 42.5844 86.4639 43.0937 85.8216 43.0912C85.4954 43.09 85.1843 42.9544 84.962 42.7166C84.7397 42.4789 84.6261 42.1602 84.6481 41.8361Z" fill="#698699"/>
<path fill-rule="evenodd" clip-rule="evenodd" d="M106.379 43.8845H107.407V42.1967H108.943V41.4321H107.407V40.5376H109.045V39.7803H106.379V43.8845Z" fill="#698699"/>
<path fill-rule="evenodd" clip-rule="evenodd" d="M128.32 43.8845H129.414V40.5449H130.775V39.7803H126.958V40.5449H128.32V43.8845Z" fill="#698699"/>
<path fill-rule="evenodd" clip-rule="evenodd" d="M149.095 43.9278H149.515L150.45 41.3527L151.384 43.9278H151.811L153.485 39.7803H152.405L151.609 42.0236L150.797 39.7803H150.109L149.298 42.0091L148.494 39.7803H147.422L149.095 43.9278Z" fill="#698699"/>
<path fill-rule="evenodd" clip-rule="evenodd" d="M169.08 43.8845H170.181L170.514 43.0911H172.289L172.586 43.8845H173.68L172.072 39.7803H170.884L169.08 43.8845ZM170.811 42.3842L171.449 40.819L172.028 42.3842H170.811Z" fill="#698699"/>
<path fill-rule="evenodd" clip-rule="evenodd" d="M190.427 43.8846H191.456V42.2183H191.579C191.908 42.185 192.213 42.3919 192.303 42.7088L192.832 43.8918H193.998L193.339 42.4492C193.247 42.2217 193.071 42.0382 192.846 41.937C193.282 41.8004 193.576 41.3961 193.571 40.9416C193.571 40.1193 193.027 39.7515 191.926 39.7515H190.405L190.427 43.8846ZM191.955 41.461H191.456V40.5088H191.955C192.325 40.5088 192.52 40.682 192.52 40.9849C192.52 41.2879 192.339 41.461 191.955 41.461Z" fill="#698699"/>
<path fill-rule="evenodd" clip-rule="evenodd" d="M211.136 43.8845H213.946V43.1199H212.172V42.139H213.823V41.3744H212.172V40.5376H213.896V39.7803H211.136V43.8845Z" fill="#698699"/>
<path fill-rule="evenodd" clip-rule="evenodd" d="M116.158 18.0327C117.269 17.5842 118.452 17.3398 119.65 17.3114C123.684 17.3114 126.408 20.1318 126.408 24.5245C126.408 29.1121 123.547 31.7954 118.498 31.7954C116.7 31.7717 114.918 31.4524 113.225 30.8504L113.138 10.5527H116.158V18.0327ZM118.795 29.0399C121.613 29.0399 123.228 27.4242 123.228 24.5606C123.228 21.697 121.605 20.0524 119.07 20.0524C118.064 20.0862 117.076 20.332 116.173 20.7737V28.5278C117.017 28.852 117.912 29.0254 118.817 29.0399H118.795Z" fill="#30467B"/>
<rect x="138.954" y="7.71094" width="2.98434" height="26.638" fill="#30467B"/>
<path fill-rule="evenodd" clip-rule="evenodd" d="M158.439 22.952H165.299C165.353 22.1881 165.078 21.4373 164.543 20.8868C164.008 20.3364 163.264 20.0383 162.495 20.0668C160.638 19.9849 158.964 21.1757 158.439 22.952ZM161.822 31.853C157.222 31.413 154.977 28.1888 155.107 24.373C155.245 20.2471 157.932 17.3186 162.017 17.3186C166.306 17.3186 168.79 20.4779 168.573 25.1376H158.251C158.497 27.7199 160.054 28.9461 162.184 29.1048C164.127 29.2574 166.074 28.873 167.812 27.994V30.836C165.957 31.7476 163.875 32.1011 161.822 31.853Z" fill="#30467B"/>
<path fill-rule="evenodd" clip-rule="evenodd" d="M212.875 29.5162C214.765 29.5162 216.048 28.5496 216.048 26.4001V17.5857H219.061V26.768C219.061 29.8408 216.671 31.709 212.868 31.709C209.065 31.709 206.682 29.8408 206.682 26.768V17.5857H209.695V26.4001C209.695 28.5641 210.977 29.5162 212.875 29.5162Z" fill="#30467B"/>
<path fill-rule="evenodd" clip-rule="evenodd" d="M93.2616 31.8027C88.191 31.8027 85.3516 29.1194 85.3516 24.5319C85.3516 20.103 88.0752 17.3188 92.1026 17.3188C93.3391 17.269 94.5624 17.588 95.6157 18.2348V17.2178H98.6291L98.5132 30.8578C96.8303 31.4899 95.0456 31.8101 93.2471 31.8027M92.9429 29.0401C93.815 29.0316 94.683 28.9203 95.5288 28.7083L95.6157 21.0191C94.7727 20.4079 93.7609 20.0704 92.7183 20.0525C90.183 20.0525 88.5605 21.7404 88.5605 24.5607C88.5605 27.3811 90.1758 29.0761 92.9936 29.0401" fill="#30467B"/>
<path fill-rule="evenodd" clip-rule="evenodd" d="M188.631 31.8027C183.56 31.8027 180.721 29.1194 180.721 24.5319C180.721 20.103 183.444 17.3188 187.479 17.3188C188.712 17.2815 189.928 17.6131 190.97 18.2709V17.2178H193.991L193.904 30.8578C192.219 31.4906 190.432 31.8108 188.631 31.8027ZM188.334 29.0401C189.206 29.0295 190.073 28.9182 190.92 28.7083L190.97 21.0191C190.129 20.4045 189.116 20.0666 188.073 20.0525C185.538 20.0525 183.908 21.7404 183.908 24.5607C183.908 27.3811 185.523 29.0401 188.348 29.0401" fill="#30467B"/>
<path d="M62.8891 11.5193H65.8735V19.9731H73.9501V22.7429H65.8735V31.9035H62.8891V22.7429H54.8125V19.9731H62.8891V11.5193Z" fill="#30467B"/>
<path fill-rule="evenodd" clip-rule="evenodd" d="M225.841 19.2735C225.841 18.2776 225.03 17.4702 224.03 17.4702C223.03 17.4702 222.219 18.2776 222.219 19.2735C222.219 20.2694 223.03 21.0768 224.03 21.0768C225.03 21.0768 225.841 20.2694 225.841 19.2735ZM222.613 19.2555C222.613 18.4594 223.232 17.7992 224.03 17.7443C224.827 17.7992 225.446 18.4594 225.446 19.2555C225.446 20.0515 224.827 20.7117 224.03 20.7666C223.232 20.7117 222.613 20.0515 222.613 19.2555ZM223.689 20.2905H223.37V18.2997C223.557 18.2689 223.746 18.252 223.935 18.2492C224.154 18.2338 224.372 18.2868 224.558 18.4007C224.683 18.4998 224.751 18.6535 224.74 18.8119C224.743 19.0446 224.583 19.2484 224.356 19.3023C224.522 19.3384 224.645 19.4971 224.682 19.7928C224.703 19.9614 224.747 20.1264 224.812 20.2833H224.479C224.402 20.1226 224.355 19.9489 224.341 19.7712C224.336 19.6666 224.287 19.569 224.205 19.5029C224.124 19.4368 224.018 19.4084 223.914 19.425H223.689V20.2905ZM223.921 19.1869H223.689V18.4945C223.766 18.4852 223.844 18.4852 223.921 18.4945C224.283 18.4945 224.406 18.6027 224.406 18.8479C224.406 19.0932 224.189 19.1869 223.921 19.1869Z" fill="#30467B"/>
</svg>
